ISO-10303-21;
HEADER;
/* Generated by software containing ST-Developer
 * from STEP Tools, Inc. (www.steptools.com) 
 */

FILE_DESCRIPTION(
/* description */ (''),
/* implementation_level */ '2;1');

FILE_NAME(
/* name */ 'pen holder.step',
/* time_stamp */ '2026-07-15T22:16:10+05:00',
/* author */ (''),
/* organization */ (''),
/* preprocessor_version */ 'ST-DEVELOPER v20.1',
/* originating_system */ 'Autodesk Translation Framework v15.8.0.0',
/* authorisation */ '');

FILE_SCHEMA (('AUTOMOTIVE_DESIGN { 1 0 10303 214 3 1 1 }'));
ENDSEC;

DATA;
#10=MECHANICAL_DESIGN_GEOMETRIC_PRESENTATION_REPRESENTATION('',(#13),#311);
#11=SHAPE_REPRESENTATION_RELATIONSHIP('SRR','None',#318,#12);
#12=ADVANCED_BREP_SHAPE_REPRESENTATION('',(#14),#310);
#13=STYLED_ITEM('',(#327),#14);
#14=MANIFOLD_SOLID_BREP('Body8',#143);
#15=FACE_BOUND('',#52,.T.);
#16=(
BOUNDED_CURVE()
B_SPLINE_CURVE(4,(#203,#204,#205,#206,#207),.UNSPECIFIED.,.F.,.F.)
B_SPLINE_CURVE_WITH_KNOTS((5,5),(0.119033452611707,0.901243757969122),
 .UNSPECIFIED.)
CURVE()
GEOMETRIC_REPRESENTATION_ITEM()
RATIONAL_B_SPLINE_CURVE((1.,1.,1.,1.,1.))
REPRESENTATION_ITEM('')
);
#17=(
BOUNDED_CURVE()
B_SPLINE_CURVE(4,(#211,#212,#213,#214,#215),.UNSPECIFIED.,.F.,.F.)
B_SPLINE_CURVE_WITH_KNOTS((5,5),(0.119033452611707,0.901243757969122),
 .UNSPECIFIED.)
CURVE()
GEOMETRIC_REPRESENTATION_ITEM()
RATIONAL_B_SPLINE_CURVE((1.,1.,1.,1.,1.))
REPRESENTATION_ITEM('')
);
#18=(
BOUNDED_CURVE()
B_SPLINE_CURVE(4,(#228,#229,#230,#231,#232),.UNSPECIFIED.,.F.,.F.)
B_SPLINE_CURVE_WITH_KNOTS((5,5),(0.119033452611707,0.876673244778807),
 .UNSPECIFIED.)
CURVE()
GEOMETRIC_REPRESENTATION_ITEM()
RATIONAL_B_SPLINE_CURVE((1.,1.,1.,1.,1.))
REPRESENTATION_ITEM('')
);
#19=(
BOUNDED_CURVE()
B_SPLINE_CURVE(4,(#234,#235,#236,#237,#238),.UNSPECIFIED.,.F.,.F.)
B_SPLINE_CURVE_WITH_KNOTS((5,5),(0.119033452611707,0.876673244778807),
 .UNSPECIFIED.)
CURVE()
GEOMETRIC_REPRESENTATION_ITEM()
RATIONAL_B_SPLINE_CURVE((1.,1.,1.,1.,1.))
REPRESENTATION_ITEM('')
);
#20=(
BOUNDED_CURVE()
B_SPLINE_CURVE(4,(#251,#252,#253,#254,#255),.UNSPECIFIED.,.F.,.F.)
B_SPLINE_CURVE_WITH_KNOTS((5,5),(0.119033452611707,0.876673244778537),
 .UNSPECIFIED.)
CURVE()
GEOMETRIC_REPRESENTATION_ITEM()
RATIONAL_B_SPLINE_CURVE((1.,1.,1.,1.,1.))
REPRESENTATION_ITEM('')
);
#21=(
BOUNDED_CURVE()
B_SPLINE_CURVE(4,(#257,#258,#259,#260,#261),.UNSPECIFIED.,.F.,.F.)
B_SPLINE_CURVE_WITH_KNOTS((5,5),(0.119033452611707,0.876673244778537),
 .UNSPECIFIED.)
CURVE()
GEOMETRIC_REPRESENTATION_ITEM()
RATIONAL_B_SPLINE_CURVE((1.,1.,1.,1.,1.))
REPRESENTATION_ITEM('')
);
#22=(
BOUNDED_CURVE()
B_SPLINE_CURVE(4,(#274,#275,#276,#277,#278),.UNSPECIFIED.,.F.,.F.)
B_SPLINE_CURVE_WITH_KNOTS((5,5),(0.0912294274191165,0.876673244778537),
 .UNSPECIFIED.)
CURVE()
GEOMETRIC_REPRESENTATION_ITEM()
RATIONAL_B_SPLINE_CURVE((1.,1.,1.,1.,1.))
REPRESENTATION_ITEM('')
);
#23=(
BOUNDED_CURVE()
B_SPLINE_CURVE(4,(#280,#281,#282,#283,#284),.UNSPECIFIED.,.F.,.F.)
B_SPLINE_CURVE_WITH_KNOTS((5,5),(0.0912294274191165,0.876673244778537),
 .UNSPECIFIED.)
CURVE()
GEOMETRIC_REPRESENTATION_ITEM()
RATIONAL_B_SPLINE_CURVE((1.,1.,1.,1.,1.))
REPRESENTATION_ITEM('')
);
#24=(
BOUNDED_CURVE()
B_SPLINE_CURVE(4,(#296,#297,#298,#299,#300),.UNSPECIFIED.,.F.,.F.)
B_SPLINE_CURVE_WITH_KNOTS((5,5),(0.110327566841099,0.887400846485167),
 .UNSPECIFIED.)
CURVE()
GEOMETRIC_REPRESENTATION_ITEM()
RATIONAL_B_SPLINE_CURVE((1.,1.,1.,1.,1.))
REPRESENTATION_ITEM('')
);
#25=(
BOUNDED_CURVE()
B_SPLINE_CURVE(4,(#301,#302,#303,#304,#305),.UNSPECIFIED.,.F.,.F.)
B_SPLINE_CURVE_WITH_KNOTS((5,5),(0.110327566841099,0.887400846485167),
 .UNSPECIFIED.)
CURVE()
GEOMETRIC_REPRESENTATION_ITEM()
RATIONAL_B_SPLINE_CURVE((1.,1.,1.,1.,1.))
REPRESENTATION_ITEM('')
);
#26=(
BOUNDED_SURFACE()
B_SPLINE_SURFACE(4,1,((#191,#192),(#193,#194),(#195,#196),(#197,#198),(#199,
#200)),.UNSPECIFIED.,.F.,.F.,.F.)
B_SPLINE_SURFACE_WITH_KNOTS((5,5),(2,2),(0.119033452611707,0.901243757969122),
(0.,15.),.UNSPECIFIED.)
GEOMETRIC_REPRESENTATION_ITEM()
RATIONAL_B_SPLINE_SURFACE(((1.,1.),(1.,1.),(1.,1.),(1.,1.),(1.,1.)))
REPRESENTATION_ITEM('')
SURFACE()
);
#27=(
BOUNDED_SURFACE()
B_SPLINE_SURFACE(4,1,((#217,#218),(#219,#220),(#221,#222),(#223,#224),(#225,
#226)),.UNSPECIFIED.,.F.,.F.,.F.)
B_SPLINE_SURFACE_WITH_KNOTS((5,5),(2,2),(0.119033452611707,0.876673244778807),
(0.,15.),.UNSPECIFIED.)
GEOMETRIC_REPRESENTATION_ITEM()
RATIONAL_B_SPLINE_SURFACE(((1.,1.),(1.,1.),(1.,1.),(1.,1.),(1.,1.)))
REPRESENTATION_ITEM('')
SURFACE()
);
#28=(
BOUNDED_SURFACE()
B_SPLINE_SURFACE(4,1,((#240,#241),(#242,#243),(#244,#245),(#246,#247),(#248,
#249)),.UNSPECIFIED.,.F.,.F.,.F.)
B_SPLINE_SURFACE_WITH_KNOTS((5,5),(2,2),(0.119033452611707,0.876673244778537),
(0.,15.),.UNSPECIFIED.)
GEOMETRIC_REPRESENTATION_ITEM()
RATIONAL_B_SPLINE_SURFACE(((1.,1.),(1.,1.),(1.,1.),(1.,1.),(1.,1.)))
REPRESENTATION_ITEM('')
SURFACE()
);
#29=(
BOUNDED_SURFACE()
B_SPLINE_SURFACE(4,1,((#263,#264),(#265,#266),(#267,#268),(#269,#270),(#271,
#272)),.UNSPECIFIED.,.F.,.F.,.F.)
B_SPLINE_SURFACE_WITH_KNOTS((5,5),(2,2),(0.0912294274191165,0.876673244778537),
(0.,15.),.UNSPECIFIED.)
GEOMETRIC_REPRESENTATION_ITEM()
RATIONAL_B_SPLINE_SURFACE(((1.,1.),(1.,1.),(1.,1.),(1.,1.),(1.,1.)))
REPRESENTATION_ITEM('')
SURFACE()
);
#30=(
BOUNDED_SURFACE()
B_SPLINE_SURFACE(4,1,((#286,#287),(#288,#289),(#290,#291),(#292,#293),(#294,
#295)),.UNSPECIFIED.,.F.,.F.,.F.)
B_SPLINE_SURFACE_WITH_KNOTS((5,5),(2,2),(0.110327566841099,0.887400846485167),
(0.,15.),.UNSPECIFIED.)
GEOMETRIC_REPRESENTATION_ITEM()
RATIONAL_B_SPLINE_SURFACE(((1.,1.),(1.,1.),(1.,1.),(1.,1.),(1.,1.)))
REPRESENTATION_ITEM('')
SURFACE()
);
#31=PLANE('',#160);
#32=PLANE('',#161);
#33=PLANE('',#162);
#34=FACE_OUTER_BOUND('',#43,.T.);
#35=FACE_OUTER_BOUND('',#44,.T.);
#36=FACE_OUTER_BOUND('',#45,.T.);
#37=FACE_OUTER_BOUND('',#46,.T.);
#38=FACE_OUTER_BOUND('',#47,.T.);
#39=FACE_OUTER_BOUND('',#48,.T.);
#40=FACE_OUTER_BOUND('',#49,.T.);
#41=FACE_OUTER_BOUND('',#50,.T.);
#42=FACE_OUTER_BOUND('',#51,.T.);
#43=EDGE_LOOP('',(#97,#98,#99,#100));
#44=EDGE_LOOP('',(#101));
#45=EDGE_LOOP('',(#102,#103,#104,#105));
#46=EDGE_LOOP('',(#106,#107,#108,#109));
#47=EDGE_LOOP('',(#110,#111,#112,#113));
#48=EDGE_LOOP('',(#114,#115,#116,#117));
#49=EDGE_LOOP('',(#118,#119,#120,#121));
#50=EDGE_LOOP('',(#122,#123,#124,#125,#126));
#51=EDGE_LOOP('',(#127,#128,#129,#130,#131));
#52=EDGE_LOOP('',(#132));
#53=LINE('',#188,#59);
#54=LINE('',#209,#60);
#55=LINE('',#216,#61);
#56=LINE('',#239,#62);
#57=LINE('',#262,#63);
#58=LINE('',#285,#64);
#59=VECTOR('',#169,3.5);
#60=VECTOR('',#174,1.);
#61=VECTOR('',#175,1.);
#62=VECTOR('',#176,1.);
#63=VECTOR('',#177,1.);
#64=VECTOR('',#178,1.);
#65=CIRCLE('',#158,3.5);
#66=CIRCLE('',#159,3.5);
#67=VERTEX_POINT('',#185);
#68=VERTEX_POINT('',#187);
#69=VERTEX_POINT('',#201);
#70=VERTEX_POINT('',#202);
#71=VERTEX_POINT('',#208);
#72=VERTEX_POINT('',#210);
#73=VERTEX_POINT('',#227);
#74=VERTEX_POINT('',#233);
#75=VERTEX_POINT('',#250);
#76=VERTEX_POINT('',#256);
#77=VERTEX_POINT('',#273);
#78=VERTEX_POINT('',#279);
#79=EDGE_CURVE('',#67,#67,#65,.T.);
#80=EDGE_CURVE('',#67,#68,#53,.T.);
#81=EDGE_CURVE('',#68,#68,#66,.T.);
#82=EDGE_CURVE('',#69,#70,#16,.T.);
#83=EDGE_CURVE('',#70,#71,#54,.T.);
#84=EDGE_CURVE('',#72,#71,#17,.T.);
#85=EDGE_CURVE('',#69,#72,#55,.T.);
#86=EDGE_CURVE('',#73,#69,#18,.T.);
#87=EDGE_CURVE('',#74,#72,#19,.T.);
#88=EDGE_CURVE('',#73,#74,#56,.T.);
#89=EDGE_CURVE('',#75,#73,#20,.T.);
#90=EDGE_CURVE('',#76,#74,#21,.T.);
#91=EDGE_CURVE('',#75,#76,#57,.T.);
#92=EDGE_CURVE('',#77,#75,#22,.T.);
#93=EDGE_CURVE('',#78,#76,#23,.T.);
#94=EDGE_CURVE('',#77,#78,#58,.T.);
#95=EDGE_CURVE('',#70,#77,#24,.T.);
#96=EDGE_CURVE('',#71,#78,#25,.T.);
#97=ORIENTED_EDGE('',*,*,#79,.F.);
#98=ORIENTED_EDGE('',*,*,#80,.T.);
#99=ORIENTED_EDGE('',*,*,#81,.T.);
#100=ORIENTED_EDGE('',*,*,#80,.F.);
#101=ORIENTED_EDGE('',*,*,#81,.F.);
#102=ORIENTED_EDGE('',*,*,#82,.T.);
#103=ORIENTED_EDGE('',*,*,#83,.T.);
#104=ORIENTED_EDGE('',*,*,#84,.F.);
#105=ORIENTED_EDGE('',*,*,#85,.F.);
#106=ORIENTED_EDGE('',*,*,#86,.T.);
#107=ORIENTED_EDGE('',*,*,#85,.T.);
#108=ORIENTED_EDGE('',*,*,#87,.F.);
#109=ORIENTED_EDGE('',*,*,#88,.F.);
#110=ORIENTED_EDGE('',*,*,#89,.T.);
#111=ORIENTED_EDGE('',*,*,#88,.T.);
#112=ORIENTED_EDGE('',*,*,#90,.F.);
#113=ORIENTED_EDGE('',*,*,#91,.F.);
#114=ORIENTED_EDGE('',*,*,#92,.T.);
#115=ORIENTED_EDGE('',*,*,#91,.T.);
#116=ORIENTED_EDGE('',*,*,#93,.F.);
#117=ORIENTED_EDGE('',*,*,#94,.F.);
#118=ORIENTED_EDGE('',*,*,#95,.T.);
#119=ORIENTED_EDGE('',*,*,#94,.T.);
#120=ORIENTED_EDGE('',*,*,#96,.F.);
#121=ORIENTED_EDGE('',*,*,#83,.F.);
#122=ORIENTED_EDGE('',*,*,#96,.T.);
#123=ORIENTED_EDGE('',*,*,#93,.T.);
#124=ORIENTED_EDGE('',*,*,#90,.T.);
#125=ORIENTED_EDGE('',*,*,#87,.T.);
#126=ORIENTED_EDGE('',*,*,#84,.T.);
#127=ORIENTED_EDGE('',*,*,#95,.F.);
#128=ORIENTED_EDGE('',*,*,#82,.F.);
#129=ORIENTED_EDGE('',*,*,#86,.F.);
#130=ORIENTED_EDGE('',*,*,#89,.F.);
#131=ORIENTED_EDGE('',*,*,#92,.F.);
#132=ORIENTED_EDGE('',*,*,#79,.T.);
#133=CYLINDRICAL_SURFACE('',#157,3.5);
#134=ADVANCED_FACE('',(#34),#133,.F.);
#135=ADVANCED_FACE('',(#35),#31,.F.);
#136=ADVANCED_FACE('',(#36),#26,.T.);
#137=ADVANCED_FACE('',(#37),#27,.T.);
#138=ADVANCED_FACE('',(#38),#28,.T.);
#139=ADVANCED_FACE('',(#39),#29,.T.);
#140=ADVANCED_FACE('',(#40),#30,.T.);
#141=ADVANCED_FACE('',(#41),#32,.T.);
#142=ADVANCED_FACE('',(#42,#15),#33,.F.);
#143=CLOSED_SHELL('',(#134,#135,#136,#137,#138,#139,#140,#141,#142));
#144=DERIVED_UNIT_ELEMENT(#146,1.);
#145=DERIVED_UNIT_ELEMENT(#313,-3.);
#146=(
MASS_UNIT()
NAMED_UNIT(*)
SI_UNIT(.KILO.,.GRAM.)
);
#147=DERIVED_UNIT((#144,#145));
#148=MEASURE_REPRESENTATION_ITEM('density measure',
POSITIVE_RATIO_MEASURE(7850.),#147);
#149=PROPERTY_DEFINITION_REPRESENTATION(#154,#151);
#150=PROPERTY_DEFINITION_REPRESENTATION(#155,#152);
#151=REPRESENTATION('material name',(#153),#310);
#152=REPRESENTATION('density',(#148),#310);
#153=DESCRIPTIVE_REPRESENTATION_ITEM('Steel','Steel');
#154=PROPERTY_DEFINITION('material property','material name',#320);
#155=PROPERTY_DEFINITION('material property','density of part',#320);
#156=AXIS2_PLACEMENT_3D('',#183,#163,#164);
#157=AXIS2_PLACEMENT_3D('',#184,#165,#166);
#158=AXIS2_PLACEMENT_3D('',#186,#167,#168);
#159=AXIS2_PLACEMENT_3D('',#189,#170,#171);
#160=AXIS2_PLACEMENT_3D('',#190,#172,#173);
#161=AXIS2_PLACEMENT_3D('',#306,#179,#180);
#162=AXIS2_PLACEMENT_3D('',#307,#181,#182);
#163=DIRECTION('axis',(0.,0.,1.));
#164=DIRECTION('refdir',(1.,0.,0.));
#165=DIRECTION('center_axis',(1.22464679914735E-16,0.,-1.));
#166=DIRECTION('ref_axis',(-1.,0.,-1.22464679914735E-16));
#167=DIRECTION('center_axis',(1.22464679914735E-16,0.,-1.));
#168=DIRECTION('ref_axis',(-1.,0.,-1.22464679914735E-16));
#169=DIRECTION('',(1.22464679914735E-16,0.,-1.));
#170=DIRECTION('center_axis',(1.22464679914735E-16,0.,-1.));
#171=DIRECTION('ref_axis',(-1.,0.,-1.22464679914735E-16));
#172=DIRECTION('center_axis',(1.22464679914735E-16,0.,-1.));
#173=DIRECTION('ref_axis',(-1.,0.,-1.22464679914735E-16));
#174=DIRECTION('',(1.22464679914735E-16,0.,-1.));
#175=DIRECTION('',(1.22464679914735E-16,0.,-1.));
#176=DIRECTION('',(1.22464679914735E-16,0.,-1.));
#177=DIRECTION('',(1.22464679914735E-16,0.,-1.));
#178=DIRECTION('',(1.22464679914735E-16,0.,-1.));
#179=DIRECTION('center_axis',(1.22464679914735E-16,0.,-1.));
#180=DIRECTION('ref_axis',(-1.,0.,-1.22464679914735E-16));
#181=DIRECTION('center_axis',(1.22464679914735E-16,0.,-1.));
#182=DIRECTION('ref_axis',(-1.,0.,-1.22464679914735E-16));
#183=CARTESIAN_POINT('',(0.,0.,0.));
#184=CARTESIAN_POINT('Origin',(0.962704246955969,-0.746172472566053,19.90422145647));
#185=CARTESIAN_POINT('',(4.46270424695597,-0.746172472566053,14.2052350388066));
#186=CARTESIAN_POINT('Origin',(0.96270424695597,-0.746172472566053,14.2052350388066));
#187=CARTESIAN_POINT('',(4.46270424695597,-0.746172472566053,-0.0957785435300007));
#188=CARTESIAN_POINT('',(4.46270424695597,-0.746172472566053,19.90422145647));
#189=CARTESIAN_POINT('Origin',(0.962704246955972,-0.746172472566053,-0.0957785435300025));
#190=CARTESIAN_POINT('Origin',(0.962704246955972,-0.746172472566053,-0.0957785435300025));
#191=CARTESIAN_POINT('Ctrl Pts',(0.368270381188742,4.48929410847327,14.2052350388066));
#192=CARTESIAN_POINT('Ctrl Pts',(0.368270381188744,4.48929410847327,-0.794764961193351));
#193=CARTESIAN_POINT('Ctrl Pts',(1.63404506865995,6.79335337738659,14.2052350388066));
#194=CARTESIAN_POINT('Ctrl Pts',(1.63404506865995,6.79335337738659,-0.794764961193351));
#195=CARTESIAN_POINT('Ctrl Pts',(5.17367346310044,6.76007059441864,14.2052350388066));
#196=CARTESIAN_POINT('Ctrl Pts',(5.17367346310044,6.76007059441864,-0.794764961193351));
#197=CARTESIAN_POINT('Ctrl Pts',(6.68594455127506,3.89620009335393,14.2052350388066));
#198=CARTESIAN_POINT('Ctrl Pts',(6.68594455127506,3.89620009335393,-0.794764961193351));
#199=CARTESIAN_POINT('Ctrl Pts',(5.32321209316702,1.52962967589926,14.2052350388066));
#200=CARTESIAN_POINT('Ctrl Pts',(5.32321209316702,1.52962967589926,-0.794764961193351));
#201=CARTESIAN_POINT('',(0.368270381182271,4.48929410846148,14.2052350388066));
#202=CARTESIAN_POINT('',(5.32321209316702,1.52962967589926,14.2052350388066));
#203=CARTESIAN_POINT('Ctrl Pts',(0.368270381188742,4.48929410847327,14.2052350388066));
#204=CARTESIAN_POINT('Ctrl Pts',(1.63404506865995,6.79335337738659,14.2052350388066));
#205=CARTESIAN_POINT('Ctrl Pts',(5.17367346310044,6.76007059441864,14.2052350388066));
#206=CARTESIAN_POINT('Ctrl Pts',(6.68594455127506,3.89620009335393,14.2052350388066));
#207=CARTESIAN_POINT('Ctrl Pts',(5.32321209316702,1.52962967589926,14.2052350388066));
#208=CARTESIAN_POINT('',(5.32321209316702,1.52962967589926,-0.79476496119335));
#209=CARTESIAN_POINT('',(5.32321209316702,1.52962967589926,14.2052350388066));
#210=CARTESIAN_POINT('',(0.368270381182272,4.48929410846148,-0.794764961193351));
#211=CARTESIAN_POINT('Ctrl Pts',(0.368270381188744,4.48929410847327,-0.794764961193351));
#212=CARTESIAN_POINT('Ctrl Pts',(1.63404506865995,6.79335337738659,-0.794764961193351));
#213=CARTESIAN_POINT('Ctrl Pts',(5.17367346310044,6.76007059441864,-0.79476496119335));
#214=CARTESIAN_POINT('Ctrl Pts',(6.68594455127506,3.89620009335393,-0.79476496119335));
#215=CARTESIAN_POINT('Ctrl Pts',(5.32321209316702,1.52962967589926,-0.79476496119335));
#216=CARTESIAN_POINT('',(0.368270381182271,4.48929410846148,14.2052350388066));
#217=CARTESIAN_POINT('Ctrl Pts',(-3.87857033686128,0.597864892749103,14.2052350388066));
#218=CARTESIAN_POINT('Ctrl Pts',(-3.87857033686127,0.597864892749103,-0.794764961193351));
#219=CARTESIAN_POINT('Ctrl Pts',(-5.55634654321884,2.5132230001322,14.2052350388066));
#220=CARTESIAN_POINT('Ctrl Pts',(-5.55634654321884,2.5132230001322,-0.794764961193351));
#221=CARTESIAN_POINT('Ctrl Pts',(-4.44394332060182,5.68319216812521,14.2052350388066));
#222=CARTESIAN_POINT('Ctrl Pts',(-4.44394332060182,5.68319216812521,-0.794764961193351));
#223=CARTESIAN_POINT('Ctrl Pts',(-1.45696224546656,6.28170098411786,14.2052350388066));
#224=CARTESIAN_POINT('Ctrl Pts',(-1.45696224546656,6.28170098411786,-0.794764961193351));
#225=CARTESIAN_POINT('Ctrl Pts',(0.368270381182271,4.48929410846148,14.2052350388066));
#226=CARTESIAN_POINT('Ctrl Pts',(0.368270381182273,4.48929410846148,-0.794764961193351));
#227=CARTESIAN_POINT('',(-3.8785703368557,0.597864892737423,14.2052350388066));
#228=CARTESIAN_POINT('Ctrl Pts',(-3.87857033686128,0.597864892749103,14.2052350388066));
#229=CARTESIAN_POINT('Ctrl Pts',(-5.55634654321884,2.5132230001322,14.2052350388066));
#230=CARTESIAN_POINT('Ctrl Pts',(-4.44394332060182,5.68319216812521,14.2052350388066));
#231=CARTESIAN_POINT('Ctrl Pts',(-1.45696224546656,6.28170098411786,14.2052350388066));
#232=CARTESIAN_POINT('Ctrl Pts',(0.368270381182271,4.48929410846148,14.2052350388066));
#233=CARTESIAN_POINT('',(-3.8785703368557,0.597864892737423,-0.794764961193351));
#234=CARTESIAN_POINT('Ctrl Pts',(-3.87857033686127,0.597864892749103,-0.794764961193351));
#235=CARTESIAN_POINT('Ctrl Pts',(-5.55634654321884,2.5132230001322,-0.794764961193351));
#236=CARTESIAN_POINT('Ctrl Pts',(-4.44394332060182,5.68319216812521,-0.794764961193351));
#237=CARTESIAN_POINT('Ctrl Pts',(-1.45696224546656,6.28170098411786,-0.794764961193351));
#238=CARTESIAN_POINT('Ctrl Pts',(0.368270381182273,4.48929410846148,-0.794764961193351));
#239=CARTESIAN_POINT('',(-3.8785703368557,0.597864892737423,14.2052350388066));
#240=CARTESIAN_POINT('Ctrl Pts',(-1.67432808960334,-4.7238071697593,14.2052350388066));
#241=CARTESIAN_POINT('Ctrl Pts',(-1.67432808960334,-4.7238071697593,-0.794764961193351));
#242=CARTESIAN_POINT('Ctrl Pts',(-4.04800922783967,-5.6453100357962,14.2052350388066));
#243=CARTESIAN_POINT('Ctrl Pts',(-4.04800922783967,-5.6453100357962,-0.794764961193351));
#244=CARTESIAN_POINT('Ctrl Pts',(-6.64634155348512,-3.51579962699145,14.2052350388066));
#245=CARTESIAN_POINT('Ctrl Pts',(-6.64634155348512,-3.51579962699145,-0.794764961193351));
#246=CARTESIAN_POINT('Ctrl Pts',(-6.18714817592225,-0.504253481233903,14.2052350388066));
#247=CARTESIAN_POINT('Ctrl Pts',(-6.18714817592225,-0.504253481233903,-0.794764961193351));
#248=CARTESIAN_POINT('Ctrl Pts',(-3.8785703368557,0.597864892737423,14.2052350388066));
#249=CARTESIAN_POINT('Ctrl Pts',(-3.8785703368557,0.597864892737423,-0.794764961193351));
#250=CARTESIAN_POINT('',(-1.67432808959046,-4.72380716975805,14.2052350388066));
#251=CARTESIAN_POINT('Ctrl Pts',(-1.67432808960334,-4.7238071697593,14.2052350388066));
#252=CARTESIAN_POINT('Ctrl Pts',(-4.04800922783967,-5.6453100357962,14.2052350388066));
#253=CARTESIAN_POINT('Ctrl Pts',(-6.64634155348512,-3.51579962699145,14.2052350388066));
#254=CARTESIAN_POINT('Ctrl Pts',(-6.18714817592225,-0.504253481233903,14.2052350388066));
#255=CARTESIAN_POINT('Ctrl Pts',(-3.8785703368557,0.597864892737423,14.2052350388066));
#256=CARTESIAN_POINT('',(-1.67432808959046,-4.72380716975805,-0.794764961193351));
#257=CARTESIAN_POINT('Ctrl Pts',(-1.67432808960334,-4.7238071697593,-0.794764961193351));
#258=CARTESIAN_POINT('Ctrl Pts',(-4.04800922783966,-5.6453100357962,-0.794764961193351));
#259=CARTESIAN_POINT('Ctrl Pts',(-6.64634155348512,-3.51579962699145,-0.794764961193351));
#260=CARTESIAN_POINT('Ctrl Pts',(-6.18714817592225,-0.504253481233903,-0.794764961193351));
#261=CARTESIAN_POINT('Ctrl Pts',(-3.8785703368557,0.597864892737423,-0.794764961193351));
#262=CARTESIAN_POINT('',(-1.67432808959046,-4.72380716975805,14.2052350388066));
#263=CARTESIAN_POINT('Ctrl Pts',(4.04794965746703,-4.09266985052951,14.2052350388066));
#264=CARTESIAN_POINT('Ctrl Pts',(4.04794965746703,-4.09266985052951,-0.794764961193351));
#265=CARTESIAN_POINT('Ctrl Pts',(4.45330075606438,-6.81676388601469,14.2052350388066));
#266=CARTESIAN_POINT('Ctrl Pts',(4.45330075606438,-6.81676388601469,-0.794764961193351));
#267=CARTESIAN_POINT('Ctrl Pts',(1.44406632458042,-8.83742614704246,14.2052350388066));
#268=CARTESIAN_POINT('Ctrl Pts',(1.44406632458042,-8.83742614704246,-0.794764961193351));
#269=CARTESIAN_POINT('Ctrl Pts',(-1.41922529353858,-7.36355207829265,14.2052350388066));
#270=CARTESIAN_POINT('Ctrl Pts',(-1.41922529353857,-7.36355207829265,-0.794764961193351));
#271=CARTESIAN_POINT('Ctrl Pts',(-1.67432808959046,-4.72380716975805,14.2052350388066));
#272=CARTESIAN_POINT('Ctrl Pts',(-1.67432808959046,-4.72380716975805,-0.794764961193351));
#273=CARTESIAN_POINT('',(4.04794965746973,-4.09266985051664,14.2052350388066));
#274=CARTESIAN_POINT('Ctrl Pts',(4.04794965746703,-4.09266985052951,14.2052350388066));
#275=CARTESIAN_POINT('Ctrl Pts',(4.45330075606438,-6.81676388601469,14.2052350388066));
#276=CARTESIAN_POINT('Ctrl Pts',(1.44406632458042,-8.83742614704246,14.2052350388066));
#277=CARTESIAN_POINT('Ctrl Pts',(-1.41922529353858,-7.36355207829265,14.2052350388066));
#278=CARTESIAN_POINT('Ctrl Pts',(-1.67432808959046,-4.72380716975805,14.2052350388066));
#279=CARTESIAN_POINT('',(4.04794965746973,-4.09266985051664,-0.79476496119335));
#280=CARTESIAN_POINT('Ctrl Pts',(4.04794965746703,-4.09266985052951,-0.79476496119335));
#281=CARTESIAN_POINT('Ctrl Pts',(4.45330075606438,-6.81676388601469,-0.79476496119335));
#282=CARTESIAN_POINT('Ctrl Pts',(1.44406632458042,-8.83742614704246,-0.794764961193351));
#283=CARTESIAN_POINT('Ctrl Pts',(-1.41922529353857,-7.36355207829265,-0.794764961193351));
#284=CARTESIAN_POINT('Ctrl Pts',(-1.67432808959046,-4.72380716975805,-0.794764961193351));
#285=CARTESIAN_POINT('',(4.04794965746973,-4.09266985051664,14.2052350388066));
#286=CARTESIAN_POINT('Ctrl Pts',(5.32321209316702,1.52962967589926,14.2052350388066));
#287=CARTESIAN_POINT('Ctrl Pts',(5.32321209316702,1.52962967589926,-0.794764961193351));
#288=CARTESIAN_POINT('Ctrl Pts',(7.91437573319837,1.00184336824895,14.2052350388066));
#289=CARTESIAN_POINT('Ctrl Pts',(7.91437573319837,1.00184336824895,-0.794764961193351));
#290=CARTESIAN_POINT('Ctrl Pts',(8.89369200923877,-2.37934504852729,14.2052350388066));
#291=CARTESIAN_POINT('Ctrl Pts',(8.89369200923878,-2.37934504852729,-0.794764961193351));
#292=CARTESIAN_POINT('Ctrl Pts',(6.65257216303866,-4.64015637248027,14.2052350388066));
#293=CARTESIAN_POINT('Ctrl Pts',(6.65257216303867,-4.64015637248027,-0.794764961193351));
#294=CARTESIAN_POINT('Ctrl Pts',(4.04794965746973,-4.09266985051664,14.2052350388066));
#295=CARTESIAN_POINT('Ctrl Pts',(4.04794965746973,-4.09266985051664,-0.794764961193351));
#296=CARTESIAN_POINT('Ctrl Pts',(5.32321209316702,1.52962967589926,14.2052350388066));
#297=CARTESIAN_POINT('Ctrl Pts',(7.91437573319837,1.00184336824895,14.2052350388066));
#298=CARTESIAN_POINT('Ctrl Pts',(8.89369200923877,-2.37934504852729,14.2052350388066));
#299=CARTESIAN_POINT('Ctrl Pts',(6.65257216303866,-4.64015637248027,14.2052350388066));
#300=CARTESIAN_POINT('Ctrl Pts',(4.04794965746973,-4.09266985051664,14.2052350388066));
#301=CARTESIAN_POINT('Ctrl Pts',(5.32321209316702,1.52962967589926,-0.79476496119335));
#302=CARTESIAN_POINT('Ctrl Pts',(7.91437573319837,1.00184336824895,-0.79476496119335));
#303=CARTESIAN_POINT('Ctrl Pts',(8.89369200923878,-2.37934504852729,-0.79476496119335));
#304=CARTESIAN_POINT('Ctrl Pts',(6.65257216303867,-4.64015637248027,-0.79476496119335));
#305=CARTESIAN_POINT('Ctrl Pts',(4.04794965746973,-4.09266985051664,-0.79476496119335));
#306=CARTESIAN_POINT('Origin',(1.12367522787683,-1.02203638482793,-0.794764961193351));
#307=CARTESIAN_POINT('Origin',(1.12367522787683,-1.02203638482793,14.2052350388066));
#308=UNCERTAINTY_MEASURE_WITH_UNIT(LENGTH_MEASURE(0.001),#312,
'DISTANCE_ACCURACY_VALUE',
'Maximum model space distance between geometric entities at asserted c
onnectivities');
#309=UNCERTAINTY_MEASURE_WITH_UNIT(LENGTH_MEASURE(0.001),#312,
'DISTANCE_ACCURACY_VALUE',
'Maximum model space distance between geometric entities at asserted c
onnectivities');
#310=(
GEOMETRIC_REPRESENTATION_CONTEXT(3)
GLOBAL_UNCERTAINTY_ASSIGNED_CONTEXT((#308))
GLOBAL_UNIT_ASSIGNED_CONTEXT((#312,#314,#315))
REPRESENTATION_CONTEXT('','3D')
);
#311=(
GEOMETRIC_REPRESENTATION_CONTEXT(3)
GLOBAL_UNCERTAINTY_ASSIGNED_CONTEXT((#309))
GLOBAL_UNIT_ASSIGNED_CONTEXT((#312,#314,#315))
REPRESENTATION_CONTEXT('','3D')
);
#312=(
LENGTH_UNIT()
NAMED_UNIT(*)
SI_UNIT(.CENTI.,.METRE.)
);
#313=(
LENGTH_UNIT()
NAMED_UNIT(*)
SI_UNIT($,.METRE.)
);
#314=(
NAMED_UNIT(*)
PLANE_ANGLE_UNIT()
SI_UNIT($,.RADIAN.)
);
#315=(
NAMED_UNIT(*)
SI_UNIT($,.STERADIAN.)
SOLID_ANGLE_UNIT()
);
#316=SHAPE_DEFINITION_REPRESENTATION(#317,#318);
#317=PRODUCT_DEFINITION_SHAPE('',$,#320);
#318=SHAPE_REPRESENTATION('',(#156),#310);
#319=PRODUCT_DEFINITION_CONTEXT('part definition',#324,'design');
#320=PRODUCT_DEFINITION('2026-07-14-22-45-19-364','pen holder',#321,#319);
#321=PRODUCT_DEFINITION_FORMATION('',$,#326);
#322=PRODUCT_RELATED_PRODUCT_CATEGORY('pen holder','pen holder',(#326));
#323=APPLICATION_PROTOCOL_DEFINITION('international standard',
'automotive_design',2009,#324);
#324=APPLICATION_CONTEXT(
'Core Data for Automotive Mechanical Design Process');
#325=PRODUCT_CONTEXT('part definition',#324,'mechanical');
#326=PRODUCT('2026-07-14-22-45-19-364','pen holder',$,(#325));
#327=PRESENTATION_STYLE_ASSIGNMENT((#328));
#328=SURFACE_STYLE_USAGE(.BOTH.,#329);
#329=SURFACE_SIDE_STYLE('',(#330));
#330=SURFACE_STYLE_FILL_AREA(#331);
#331=FILL_AREA_STYLE('Steel - Satin',(#332));
#332=FILL_AREA_STYLE_COLOUR('Steel - Satin',#333);
#333=COLOUR_RGB('Steel - Satin',0.627450980392157,0.627450980392157,0.627450980392157);
ENDSEC;
END-ISO-10303-21;
