ISO-10303-21;
HEADER;
/* Generated by software containing ST-Developer
 * from STEP Tools, Inc. (www.steptools.com) 
 */

FILE_DESCRIPTION(
/* description */ (''),
/* implementation_level */ '2;1');

FILE_NAME(
/* name */ 'drawer knob.step',
/* time_stamp */ '2026-07-15T22:15:23+05:00',
/* author */ (''),
/* organization */ (''),
/* preprocessor_version */ 'ST-DEVELOPER v20.1',
/* originating_system */ 'Autodesk Translation Framework v15.8.0.0',
/* authorisation */ '');

FILE_SCHEMA (('AUTOMOTIVE_DESIGN { 1 0 10303 214 3 1 1 }'));
ENDSEC;

DATA;
#10=MECHANICAL_DESIGN_GEOMETRIC_PRESENTATION_REPRESENTATION('',(#25,#26),
#373);
#11=SHAPE_REPRESENTATION_RELATIONSHIP('SRR','None',#380,#12);
#12=ADVANCED_BREP_SHAPE_REPRESENTATION('',(#27,#28),#372);
#13=(
BOUNDED_CURVE()
B_SPLINE_CURVE(5,(#204,#205,#206,#207,#208,#209,#210,#211,#212,#213,#214),
 .UNSPECIFIED.,.F.,.F.)
B_SPLINE_CURVE_WITH_KNOTS((6,1,1,1,1,1,6),(0.000698772809899536,0.166666666666667,
0.333333333333333,0.5,0.666666666666667,0.833333333333333,0.930316831764627),
 .UNSPECIFIED.)
CURVE()
GEOMETRIC_REPRESENTATION_ITEM()
RATIONAL_B_SPLINE_CURVE((1.,1.,1.,1.,1.,1.,1.,1.,1.,1.,1.))
REPRESENTATION_ITEM('')
);
#14=(
BOUNDED_CURVE()
B_SPLINE_CURVE(5,(#218,#219,#220,#221,#222,#223,#224,#225,#226,#227,#228),
 .UNSPECIFIED.,.F.,.F.)
B_SPLINE_CURVE_WITH_KNOTS((6,1,1,1,1,1,6),(-0.930316831764624,-0.833333333333333,
-0.666666666666667,-0.5,-0.333333333333333,-0.166666666666667,-0.000698772809899641),
 .UNSPECIFIED.)
CURVE()
GEOMETRIC_REPRESENTATION_ITEM()
RATIONAL_B_SPLINE_CURVE((1.,1.,1.,1.,1.,1.,1.,1.,1.,1.,1.))
REPRESENTATION_ITEM('')
);
#15=(
BOUNDED_CURVE()
B_SPLINE_CURVE(5,(#253,#254,#255,#256,#257,#258,#259,#260,#261,#262,#263),
 .UNSPECIFIED.,.F.,.F.)
B_SPLINE_CURVE_WITH_KNOTS((6,1,1,1,1,1,6),(0.012723642657233,0.166666666666667,
0.333333333333333,0.5,0.666666666666667,0.833333333333333,0.930316831764626),
 .UNSPECIFIED.)
CURVE()
GEOMETRIC_REPRESENTATION_ITEM()
RATIONAL_B_SPLINE_CURVE((1.,1.,1.,1.,1.,1.,1.,1.,1.,1.,1.))
REPRESENTATION_ITEM('')
);
#16=(
BOUNDED_CURVE()
B_SPLINE_CURVE(5,(#265,#266,#267,#268,#269,#270,#271,#272,#273,#274,#275),
 .UNSPECIFIED.,.F.,.F.)
B_SPLINE_CURVE_WITH_KNOTS((6,1,1,1,1,1,6),(-0.930316831764624,-0.833333333333333,
-0.666666666666667,-0.5,-0.333333333333333,-0.166666666666667,-0.0127236426572335),
 .UNSPECIFIED.)
CURVE()
GEOMETRIC_REPRESENTATION_ITEM()
RATIONAL_B_SPLINE_CURVE((1.,1.,1.,1.,1.,1.,1.,1.,1.,1.,1.))
REPRESENTATION_ITEM('')
);
#17=(
BOUNDED_CURVE()
B_SPLINE_CURVE(5,(#300,#301,#302,#303,#304,#305,#306,#307,#308,#309,#310),
 .UNSPECIFIED.,.F.,.F.)
B_SPLINE_CURVE_WITH_KNOTS((6,1,1,1,1,1,6),(0.0127236426572331,0.166666666666667,
0.333333333333333,0.5,0.666666666666667,0.833333333333333,0.997147901772308),
 .UNSPECIFIED.)
CURVE()
GEOMETRIC_REPRESENTATION_ITEM()
RATIONAL_B_SPLINE_CURVE((1.,1.,1.,1.,1.,1.,1.,1.,1.,1.,1.))
REPRESENTATION_ITEM('')
);
#18=(
BOUNDED_CURVE()
B_SPLINE_CURVE(5,(#312,#313,#314,#315,#316,#317,#318,#319,#320,#321,#322),
 .UNSPECIFIED.,.F.,.F.)
B_SPLINE_CURVE_WITH_KNOTS((6,1,1,1,1,1,6),(-0.997147901772308,-0.833333333333333,
-0.666666666666667,-0.5,-0.333333333333333,-0.166666666666667,-0.0127236426572336),
 .UNSPECIFIED.)
CURVE()
GEOMETRIC_REPRESENTATION_ITEM()
RATIONAL_B_SPLINE_CURVE((1.,1.,1.,1.,1.,1.,1.,1.,1.,1.,1.))
REPRESENTATION_ITEM('')
);
#19=(
BOUNDED_CURVE()
B_SPLINE_CURVE(5,(#346,#347,#348,#349,#350,#351,#352,#353,#354,#355,#356),
 .UNSPECIFIED.,.F.,.F.)
B_SPLINE_CURVE_WITH_KNOTS((6,1,1,1,1,1,6),(0.000698772809899518,0.166666666666667,
0.333333333333333,0.5,0.666666666666667,0.833333333333333,0.997147901772308),
 .UNSPECIFIED.)
CURVE()
GEOMETRIC_REPRESENTATION_ITEM()
RATIONAL_B_SPLINE_CURVE((1.,1.,1.,1.,1.,1.,1.,1.,1.,1.,1.))
REPRESENTATION_ITEM('')
);
#20=(
BOUNDED_CURVE()
B_SPLINE_CURVE(5,(#357,#358,#359,#360,#361,#362,#363,#364,#365,#366,#367),
 .UNSPECIFIED.,.F.,.F.)
B_SPLINE_CURVE_WITH_KNOTS((6,1,1,1,1,1,6),(-0.997147901772308,-0.833333333333333,
-0.666666666666667,-0.5,-0.333333333333333,-0.166666666666667,-0.000698772809899625),
 .UNSPECIFIED.)
CURVE()
GEOMETRIC_REPRESENTATION_ITEM()
RATIONAL_B_SPLINE_CURVE((1.,1.,1.,1.,1.,1.,1.,1.,1.,1.,1.))
REPRESENTATION_ITEM('')
);
#21=(
BOUNDED_SURFACE()
B_SPLINE_SURFACE(5,1,((#180,#181),(#182,#183),(#184,#185),(#186,#187),(#188,
#189),(#190,#191),(#192,#193),(#194,#195),(#196,#197),(#198,#199),(#200,
#201)),.UNSPECIFIED.,.F.,.F.,.F.)
B_SPLINE_SURFACE_WITH_KNOTS((6,1,1,1,1,1,6),(2,2),(-0.930316831764624,-0.833333333333333,
-0.666666666666667,-0.5,-0.333333333333333,-0.166666666666667,-0.000698772809899641),
(0.,1.),.UNSPECIFIED.)
GEOMETRIC_REPRESENTATION_ITEM()
RATIONAL_B_SPLINE_SURFACE(((1.,1.),(1.,1.),(1.,1.),(1.,1.),(1.,1.),(1.,
1.),(1.,1.),(1.,1.),(1.,1.),(1.,1.),(1.,1.)))
REPRESENTATION_ITEM('')
SURFACE()
);
#22=(
BOUNDED_SURFACE()
B_SPLINE_SURFACE(5,1,((#230,#231),(#232,#233),(#234,#235),(#236,#237),(#238,
#239),(#240,#241),(#242,#243),(#244,#245),(#246,#247),(#248,#249),(#250,
#251)),.UNSPECIFIED.,.F.,.F.,.F.)
B_SPLINE_SURFACE_WITH_KNOTS((6,1,1,1,1,1,6),(2,2),(-0.930316831764624,-0.833333333333333,
-0.666666666666667,-0.5,-0.333333333333333,-0.166666666666667,-0.0127236426572335),
(0.,1.),.UNSPECIFIED.)
GEOMETRIC_REPRESENTATION_ITEM()
RATIONAL_B_SPLINE_SURFACE(((1.,1.),(1.,1.),(1.,1.),(1.,1.),(1.,1.),(1.,
1.),(1.,1.),(1.,1.),(1.,1.),(1.,1.),(1.,1.)))
REPRESENTATION_ITEM('')
SURFACE()
);
#23=(
BOUNDED_SURFACE()
B_SPLINE_SURFACE(5,1,((#277,#278),(#279,#280),(#281,#282),(#283,#284),(#285,
#286),(#287,#288),(#289,#290),(#291,#292),(#293,#294),(#295,#296),(#297,
#298)),.UNSPECIFIED.,.F.,.F.,.F.)
B_SPLINE_SURFACE_WITH_KNOTS((6,1,1,1,1,1,6),(2,2),(-0.997147901772308,-0.833333333333333,
-0.666666666666667,-0.5,-0.333333333333333,-0.166666666666667,-0.0127236426572336),
(0.,1.),.UNSPECIFIED.)
GEOMETRIC_REPRESENTATION_ITEM()
RATIONAL_B_SPLINE_SURFACE(((1.,1.),(1.,1.),(1.,1.),(1.,1.),(1.,1.),(1.,
1.),(1.,1.),(1.,1.),(1.,1.),(1.,1.),(1.,1.)))
REPRESENTATION_ITEM('')
SURFACE()
);
#24=(
BOUNDED_SURFACE()
B_SPLINE_SURFACE(5,1,((#324,#325),(#326,#327),(#328,#329),(#330,#331),(#332,
#333),(#334,#335),(#336,#337),(#338,#339),(#340,#341),(#342,#343),(#344,
#345)),.UNSPECIFIED.,.F.,.F.,.F.)
B_SPLINE_SURFACE_WITH_KNOTS((6,1,1,1,1,1,6),(2,2),(-0.997147901772308,-0.833333333333333,
-0.666666666666667,-0.5,-0.333333333333333,-0.166666666666667,-0.000698772809899625),
(0.,1.),.UNSPECIFIED.)
GEOMETRIC_REPRESENTATION_ITEM()
RATIONAL_B_SPLINE_SURFACE(((1.,1.),(1.,1.),(1.,1.),(1.,1.),(1.,1.),(1.,
1.),(1.,1.),(1.,1.),(1.,1.),(1.,1.),(1.,1.)))
REPRESENTATION_ITEM('')
SURFACE()
);
#25=STYLED_ITEM('',(#389),#27);
#26=STYLED_ITEM('',(#389),#28);
#27=MANIFOLD_SOLID_BREP('Body1',#128);
#28=MANIFOLD_SOLID_BREP('Body2',#129);
#29=PLANE('',#146);
#30=PLANE('',#147);
#31=PLANE('',#148);
#32=PLANE('',#149);
#33=FACE_OUTER_BOUND('',#42,.T.);
#34=FACE_OUTER_BOUND('',#43,.T.);
#35=FACE_OUTER_BOUND('',#44,.T.);
#36=FACE_OUTER_BOUND('',#45,.T.);
#37=FACE_OUTER_BOUND('',#46,.T.);
#38=FACE_OUTER_BOUND('',#47,.T.);
#39=FACE_OUTER_BOUND('',#48,.T.);
#40=FACE_OUTER_BOUND('',#49,.T.);
#41=FACE_OUTER_BOUND('',#50,.T.);
#42=EDGE_LOOP('',(#88,#89,#90,#91));
#43=EDGE_LOOP('',(#92));
#44=EDGE_LOOP('',(#93));
#45=EDGE_LOOP('',(#94,#95,#96,#97));
#46=EDGE_LOOP('',(#98,#99,#100,#101));
#47=EDGE_LOOP('',(#102,#103,#104,#105));
#48=EDGE_LOOP('',(#106,#107,#108,#109));
#49=EDGE_LOOP('',(#110,#111,#112,#113));
#50=EDGE_LOOP('',(#114,#115,#116,#117));
#51=LINE('',#176,#56);
#52=LINE('',#216,#57);
#53=LINE('',#229,#58);
#54=LINE('',#276,#59);
#55=LINE('',#323,#60);
#56=VECTOR('',#156,0.375);
#57=VECTOR('',#163,1.);
#58=VECTOR('',#164,1.);
#59=VECTOR('',#165,1.);
#60=VECTOR('',#166,1.);
#61=CIRCLE('',#144,0.375);
#62=CIRCLE('',#145,0.375);
#63=VERTEX_POINT('',#173);
#64=VERTEX_POINT('',#175);
#65=VERTEX_POINT('',#202);
#66=VERTEX_POINT('',#203);
#67=VERTEX_POINT('',#215);
#68=VERTEX_POINT('',#217);
#69=VERTEX_POINT('',#252);
#70=VERTEX_POINT('',#264);
#71=VERTEX_POINT('',#299);
#72=VERTEX_POINT('',#311);
#73=EDGE_CURVE('',#63,#63,#61,.T.);
#74=EDGE_CURVE('',#63,#64,#51,.T.);
#75=EDGE_CURVE('',#64,#64,#62,.T.);
#76=EDGE_CURVE('',#65,#66,#13,.T.);
#77=EDGE_CURVE('',#65,#67,#52,.T.);
#78=EDGE_CURVE('',#68,#67,#14,.T.);
#79=EDGE_CURVE('',#66,#68,#53,.T.);
#80=EDGE_CURVE('',#66,#69,#15,.T.);
#81=EDGE_CURVE('',#70,#68,#16,.T.);
#82=EDGE_CURVE('',#69,#70,#54,.T.);
#83=EDGE_CURVE('',#69,#71,#17,.T.);
#84=EDGE_CURVE('',#72,#70,#18,.T.);
#85=EDGE_CURVE('',#71,#72,#55,.T.);
#86=EDGE_CURVE('',#71,#65,#19,.T.);
#87=EDGE_CURVE('',#67,#72,#20,.T.);
#88=ORIENTED_EDGE('',*,*,#73,.F.);
#89=ORIENTED_EDGE('',*,*,#74,.T.);
#90=ORIENTED_EDGE('',*,*,#75,.T.);
#91=ORIENTED_EDGE('',*,*,#74,.F.);
#92=ORIENTED_EDGE('',*,*,#73,.T.);
#93=ORIENTED_EDGE('',*,*,#75,.F.);
#94=ORIENTED_EDGE('',*,*,#76,.F.);
#95=ORIENTED_EDGE('',*,*,#77,.T.);
#96=ORIENTED_EDGE('',*,*,#78,.F.);
#97=ORIENTED_EDGE('',*,*,#79,.F.);
#98=ORIENTED_EDGE('',*,*,#80,.F.);
#99=ORIENTED_EDGE('',*,*,#79,.T.);
#100=ORIENTED_EDGE('',*,*,#81,.F.);
#101=ORIENTED_EDGE('',*,*,#82,.F.);
#102=ORIENTED_EDGE('',*,*,#83,.F.);
#103=ORIENTED_EDGE('',*,*,#82,.T.);
#104=ORIENTED_EDGE('',*,*,#84,.F.);
#105=ORIENTED_EDGE('',*,*,#85,.F.);
#106=ORIENTED_EDGE('',*,*,#86,.F.);
#107=ORIENTED_EDGE('',*,*,#85,.T.);
#108=ORIENTED_EDGE('',*,*,#87,.F.);
#109=ORIENTED_EDGE('',*,*,#77,.F.);
#110=ORIENTED_EDGE('',*,*,#87,.T.);
#111=ORIENTED_EDGE('',*,*,#84,.T.);
#112=ORIENTED_EDGE('',*,*,#81,.T.);
#113=ORIENTED_EDGE('',*,*,#78,.T.);
#114=ORIENTED_EDGE('',*,*,#86,.T.);
#115=ORIENTED_EDGE('',*,*,#76,.T.);
#116=ORIENTED_EDGE('',*,*,#80,.T.);
#117=ORIENTED_EDGE('',*,*,#83,.T.);
#118=CYLINDRICAL_SURFACE('',#143,0.375);
#119=ADVANCED_FACE('',(#33),#118,.T.);
#120=ADVANCED_FACE('',(#34),#29,.T.);
#121=ADVANCED_FACE('',(#35),#30,.F.);
#122=ADVANCED_FACE('',(#36),#21,.T.);
#123=ADVANCED_FACE('',(#37),#22,.T.);
#124=ADVANCED_FACE('',(#38),#23,.T.);
#125=ADVANCED_FACE('',(#39),#24,.T.);
#126=ADVANCED_FACE('',(#40),#31,.T.);
#127=ADVANCED_FACE('',(#41),#32,.F.);
#128=CLOSED_SHELL('',(#119,#120,#121));
#129=CLOSED_SHELL('',(#122,#123,#124,#125,#126,#127));
#130=DERIVED_UNIT_ELEMENT(#132,1.);
#131=DERIVED_UNIT_ELEMENT(#375,-3.);
#132=(
MASS_UNIT()
NAMED_UNIT(*)
SI_UNIT(.KILO.,.GRAM.)
);
#133=DERIVED_UNIT((#130,#131));
#134=MEASURE_REPRESENTATION_ITEM('density measure',
POSITIVE_RATIO_MEASURE(7850.),#133);
#135=PROPERTY_DEFINITION_REPRESENTATION(#140,#137);
#136=PROPERTY_DEFINITION_REPRESENTATION(#141,#138);
#137=REPRESENTATION('material name',(#139),#372);
#138=REPRESENTATION('density',(#134),#372);
#139=DESCRIPTIVE_REPRESENTATION_ITEM('Steel','Steel');
#140=PROPERTY_DEFINITION('material property','material name',#382);
#141=PROPERTY_DEFINITION('material property','density of part',#382);
#142=AXIS2_PLACEMENT_3D('',#171,#150,#151);
#143=AXIS2_PLACEMENT_3D('',#172,#152,#153);
#144=AXIS2_PLACEMENT_3D('',#174,#154,#155);
#145=AXIS2_PLACEMENT_3D('',#177,#157,#158);
#146=AXIS2_PLACEMENT_3D('',#178,#159,#160);
#147=AXIS2_PLACEMENT_3D('',#179,#161,#162);
#148=AXIS2_PLACEMENT_3D('',#368,#167,#168);
#149=AXIS2_PLACEMENT_3D('',#369,#169,#170);
#150=DIRECTION('axis',(0.,0.,1.));
#151=DIRECTION('refdir',(1.,0.,0.));
#152=DIRECTION('center_axis',(0.,0.,1.));
#153=DIRECTION('ref_axis',(1.,0.,0.));
#154=DIRECTION('center_axis',(0.,0.,1.));
#155=DIRECTION('ref_axis',(1.,0.,0.));
#156=DIRECTION('',(0.,0.,-1.));
#157=DIRECTION('center_axis',(0.,0.,1.));
#158=DIRECTION('ref_axis',(1.,0.,0.));
#159=DIRECTION('center_axis',(0.,0.,1.));
#160=DIRECTION('ref_axis',(1.,0.,0.));
#161=DIRECTION('center_axis',(0.,0.,1.));
#162=DIRECTION('ref_axis',(1.,0.,0.));
#163=DIRECTION('',(0.,0.,1.));
#164=DIRECTION('',(0.,0.,1.));
#165=DIRECTION('',(0.,0.,1.));
#166=DIRECTION('',(0.,0.,1.));
#167=DIRECTION('center_axis',(0.,0.,1.));
#168=DIRECTION('ref_axis',(1.,0.,0.));
#169=DIRECTION('center_axis',(0.,0.,1.));
#170=DIRECTION('ref_axis',(1.,0.,0.));
#171=CARTESIAN_POINT('',(0.,0.,0.));
#172=CARTESIAN_POINT('Origin',(-0.5,3.5,0.));
#173=CARTESIAN_POINT('',(-0.875,3.5,1.));
#174=CARTESIAN_POINT('Origin',(-0.5,3.5,1.));
#175=CARTESIAN_POINT('',(-0.875,3.5,0.));
#176=CARTESIAN_POINT('',(-0.875,3.5,0.));
#177=CARTESIAN_POINT('Origin',(-0.5,3.5,0.));
#178=CARTESIAN_POINT('Origin',(-0.5,3.5,1.));
#179=CARTESIAN_POINT('Origin',(-0.5,3.5,0.));
#180=CARTESIAN_POINT('Ctrl Pts',(0.22312669167839,4.18631253589276,0.880868999536641));
#181=CARTESIAN_POINT('Ctrl Pts',(0.22312669167839,4.18631253589276,1.88086899953664));
#182=CARTESIAN_POINT('Ctrl Pts',(0.246177273909784,4.22868059176495,0.880868999536641));
#183=CARTESIAN_POINT('Ctrl Pts',(0.246177273909784,4.22868059176495,1.88086899953664));
#184=CARTESIAN_POINT('Ctrl Pts',(0.294297848482596,4.32879037191037,0.880868999536641));
#185=CARTESIAN_POINT('Ctrl Pts',(0.294297848482596,4.32879037191037,1.88086899953664));
#186=CARTESIAN_POINT('Ctrl Pts',(0.357555291198684,4.48977873417574,0.880868999536641));
#187=CARTESIAN_POINT('Ctrl Pts',(0.357555291198684,4.48977873417574,1.88086899953664));
#188=CARTESIAN_POINT('Ctrl Pts',(0.35268898055735,4.66907446650853,0.880868999536641));
#189=CARTESIAN_POINT('Ctrl Pts',(0.35268898055735,4.66907446650853,1.88086899953664));
#190=CARTESIAN_POINT('Ctrl Pts',(0.293134724384529,4.9006254572308,0.880868999536641));
#191=CARTESIAN_POINT('Ctrl Pts',(0.293134724384529,4.9006254572308,1.88086899953664));
#192=CARTESIAN_POINT('Ctrl Pts',(0.288770182170065,5.11885256795401,0.880868999536641));
#193=CARTESIAN_POINT('Ctrl Pts',(0.288770182170065,5.11885256795401,1.88086899953664));
#194=CARTESIAN_POINT('Ctrl Pts',(-0.382527596385977,5.2585252061433,0.880868999536641));
#195=CARTESIAN_POINT('Ctrl Pts',(-0.382527596385977,5.2585252061433,1.88086899953664));
#196=CARTESIAN_POINT('Ctrl Pts',(-1.09297047486016,5.16311949933891,0.880868999536641));
#197=CARTESIAN_POINT('Ctrl Pts',(-1.09297047486016,5.16311949933891,1.88086899953664));
#198=CARTESIAN_POINT('Ctrl Pts',(-1.33980856681853,4.65225004760064,0.880868999536641));
#199=CARTESIAN_POINT('Ctrl Pts',(-1.33980856681853,4.65225004760064,1.88086899953664));
#200=CARTESIAN_POINT('Ctrl Pts',(-1.02793807472568,3.93924461774611,0.880868999536641));
#201=CARTESIAN_POINT('Ctrl Pts',(-1.02793807472568,3.93924461774611,1.88086899953664));
#202=CARTESIAN_POINT('',(-1.02793807472568,3.93924461774611,0.880868999536641));
#203=CARTESIAN_POINT('',(0.223126691678387,4.18631253589276,0.880868999536641));
#204=CARTESIAN_POINT('Ctrl Pts',(-1.02793807472568,3.93924461774611,0.880868999536641));
#205=CARTESIAN_POINT('Ctrl Pts',(-1.33980856681854,4.65225004760064,0.880868999536641));
#206=CARTESIAN_POINT('Ctrl Pts',(-1.09297047486017,5.16311949933891,0.88086899953664));
#207=CARTESIAN_POINT('Ctrl Pts',(-0.382527596385977,5.2585252061433,0.880868999536641));
#208=CARTESIAN_POINT('Ctrl Pts',(0.288770182170065,5.11885256795401,0.880868999536641));
#209=CARTESIAN_POINT('Ctrl Pts',(0.293134724384529,4.9006254572308,0.880868999536641));
#210=CARTESIAN_POINT('Ctrl Pts',(0.35268898055735,4.66907446650852,0.880868999536641));
#211=CARTESIAN_POINT('Ctrl Pts',(0.357555291198684,4.48977873417574,0.880868999536641));
#212=CARTESIAN_POINT('Ctrl Pts',(0.294297848482594,4.32879037191037,0.880868999536641));
#213=CARTESIAN_POINT('Ctrl Pts',(0.246177273909782,4.22868059176495,0.880868999536641));
#214=CARTESIAN_POINT('Ctrl Pts',(0.223126691678387,4.18631253589276,0.880868999536641));
#215=CARTESIAN_POINT('',(-1.02793807472568,3.93924461774611,1.88086899953664));
#216=CARTESIAN_POINT('',(-1.02793807472568,3.93924461774611,0.880868999536641));
#217=CARTESIAN_POINT('',(0.223126691678387,4.18631253589276,1.88086899953664));
#218=CARTESIAN_POINT('Ctrl Pts',(0.22312669167839,4.18631253589276,1.88086899953664));
#219=CARTESIAN_POINT('Ctrl Pts',(0.246177273909784,4.22868059176495,1.88086899953664));
#220=CARTESIAN_POINT('Ctrl Pts',(0.294297848482596,4.32879037191037,1.88086899953664));
#221=CARTESIAN_POINT('Ctrl Pts',(0.357555291198684,4.48977873417574,1.88086899953664));
#222=CARTESIAN_POINT('Ctrl Pts',(0.35268898055735,4.66907446650853,1.88086899953664));
#223=CARTESIAN_POINT('Ctrl Pts',(0.293134724384529,4.9006254572308,1.88086899953664));
#224=CARTESIAN_POINT('Ctrl Pts',(0.288770182170065,5.11885256795401,1.88086899953664));
#225=CARTESIAN_POINT('Ctrl Pts',(-0.382527596385977,5.2585252061433,1.88086899953664));
#226=CARTESIAN_POINT('Ctrl Pts',(-1.09297047486016,5.16311949933891,1.88086899953664));
#227=CARTESIAN_POINT('Ctrl Pts',(-1.33980856681853,4.65225004760064,1.88086899953664));
#228=CARTESIAN_POINT('Ctrl Pts',(-1.02793807472568,3.93924461774611,1.88086899953664));
#229=CARTESIAN_POINT('',(0.223126691678387,4.18631253589276,0.880868999536641));
#230=CARTESIAN_POINT('Ctrl Pts',(0.351639598741412,2.84982547854437,0.880868999536641));
#231=CARTESIAN_POINT('Ctrl Pts',(0.351639598741412,2.84982547854437,1.88086899953664));
#232=CARTESIAN_POINT('Ctrl Pts',(0.395855421984884,2.83055523011584,0.880868999536641));
#233=CARTESIAN_POINT('Ctrl Pts',(0.395855421984884,2.83055523011584,1.88086899953664));
#234=CARTESIAN_POINT('Ctrl Pts',(0.499778238611219,2.79134291110216,0.880868999536641));
#235=CARTESIAN_POINT('Ctrl Pts',(0.499778238611219,2.79134291110216,1.88086899953664));
#236=CARTESIAN_POINT('Ctrl Pts',(0.665667240958693,2.74235724234052,0.880868999536641));
#237=CARTESIAN_POINT('Ctrl Pts',(0.665667240958693,2.74235724234052,1.88086899953664));
#238=CARTESIAN_POINT('Ctrl Pts',(0.8438565719807,2.76283168792363,0.880868999536641));
#239=CARTESIAN_POINT('Ctrl Pts',(0.8438565719807,2.76283168792363,1.88086899953664));
#240=CARTESIAN_POINT('Ctrl Pts',(1.06933594584559,2.84234032075215,0.880868999536641));
#241=CARTESIAN_POINT('Ctrl Pts',(1.06933594584559,2.84234032075215,1.88086899953664));
#242=CARTESIAN_POINT('Ctrl Pts',(1.2832181022943,2.86537052553761,0.880868999536641));
#243=CARTESIAN_POINT('Ctrl Pts',(1.2832181022943,2.86537052553761,1.88086899953664));
#244=CARTESIAN_POINT('Ctrl Pts',(1.36404374397888,3.52225089198958,0.880868999536641));
#245=CARTESIAN_POINT('Ctrl Pts',(1.36404374397888,3.52225089198958,1.88086899953664));
#246=CARTESIAN_POINT('Ctrl Pts',(1.22098861043642,4.19584657578217,0.880868999536641));
#247=CARTESIAN_POINT('Ctrl Pts',(1.22098861043642,4.19584657578217,1.88086899953664));
#248=CARTESIAN_POINT('Ctrl Pts',(0.753010042887743,4.41629420698668,0.880868999536641));
#249=CARTESIAN_POINT('Ctrl Pts',(0.753010042887743,4.41629420698668,1.88086899953664));
#250=CARTESIAN_POINT('Ctrl Pts',(0.223126691678394,4.18631253589276,0.880868999536641));
#251=CARTESIAN_POINT('Ctrl Pts',(0.223126691678394,4.18631253589276,1.88086899953664));
#252=CARTESIAN_POINT('',(0.351639598741406,2.84982547854437,0.880868999536641));
#253=CARTESIAN_POINT('Ctrl Pts',(0.223126691678387,4.18631253589276,0.880868999536641));
#254=CARTESIAN_POINT('Ctrl Pts',(0.75301004288774,4.41629420698668,0.880868999536641));
#255=CARTESIAN_POINT('Ctrl Pts',(1.22098861043642,4.19584657578218,0.880868999536641));
#256=CARTESIAN_POINT('Ctrl Pts',(1.36404374397888,3.52225089198958,0.880868999536641));
#257=CARTESIAN_POINT('Ctrl Pts',(1.2832181022943,2.86537052553761,0.880868999536641));
#258=CARTESIAN_POINT('Ctrl Pts',(1.06933594584559,2.84234032075215,0.880868999536641));
#259=CARTESIAN_POINT('Ctrl Pts',(0.843856571980699,2.76283168792363,0.880868999536641));
#260=CARTESIAN_POINT('Ctrl Pts',(0.665667240958691,2.74235724234052,0.880868999536641));
#261=CARTESIAN_POINT('Ctrl Pts',(0.499778238611215,2.79134291110216,0.880868999536641));
#262=CARTESIAN_POINT('Ctrl Pts',(0.39585542198488,2.83055523011585,0.880868999536641));
#263=CARTESIAN_POINT('Ctrl Pts',(0.351639598741406,2.84982547854437,0.880868999536641));
#264=CARTESIAN_POINT('',(0.351639598741406,2.84982547854437,1.88086899953664));
#265=CARTESIAN_POINT('Ctrl Pts',(0.351639598741412,2.84982547854437,1.88086899953664));
#266=CARTESIAN_POINT('Ctrl Pts',(0.395855421984884,2.83055523011584,1.88086899953664));
#267=CARTESIAN_POINT('Ctrl Pts',(0.499778238611219,2.79134291110216,1.88086899953664));
#268=CARTESIAN_POINT('Ctrl Pts',(0.665667240958693,2.74235724234052,1.88086899953664));
#269=CARTESIAN_POINT('Ctrl Pts',(0.8438565719807,2.76283168792363,1.88086899953664));
#270=CARTESIAN_POINT('Ctrl Pts',(1.06933594584559,2.84234032075215,1.88086899953664));
#271=CARTESIAN_POINT('Ctrl Pts',(1.2832181022943,2.86537052553761,1.88086899953664));
#272=CARTESIAN_POINT('Ctrl Pts',(1.36404374397888,3.52225089198958,1.88086899953664));
#273=CARTESIAN_POINT('Ctrl Pts',(1.22098861043642,4.19584657578217,1.88086899953664));
#274=CARTESIAN_POINT('Ctrl Pts',(0.753010042887743,4.41629420698668,1.88086899953664));
#275=CARTESIAN_POINT('Ctrl Pts',(0.223126691678394,4.18631253589276,1.88086899953664));
#276=CARTESIAN_POINT('',(0.351639598741406,2.84982547854437,0.880868999536641));
#277=CARTESIAN_POINT('Ctrl Pts',(-0.880227766507331,2.82129460857183,0.880868999536641));
#278=CARTESIAN_POINT('Ctrl Pts',(-0.880227766507331,2.82129460857183,1.88086899953664));
#279=CARTESIAN_POINT('Ctrl Pts',(-0.95100648827449,2.66827440152202,0.880868999536641));
#280=CARTESIAN_POINT('Ctrl Pts',(-0.95100648827449,2.66827440152202,1.88086899953664));
#281=CARTESIAN_POINT('Ctrl Pts',(-0.993405784429867,2.53488426364856,0.880868999536641));
#282=CARTESIAN_POINT('Ctrl Pts',(-0.993405784429867,2.53488426364856,1.88086899953664));
#283=CARTESIAN_POINT('Ctrl Pts',(-1.05577663138858,2.32253394683964,0.880868999536641));
#284=CARTESIAN_POINT('Ctrl Pts',(-1.05577663138858,2.32253394683964,1.88086899953664));
#285=CARTESIAN_POINT('Ctrl Pts',(-1.0209758794959,2.12644448774205,0.880868999536641));
#286=CARTESIAN_POINT('Ctrl Pts',(-1.0209758794959,2.12644448774205,1.88086899953664));
#287=CARTESIAN_POINT('Ctrl Pts',(-0.913466400297404,1.88970140942404,0.880868999536641));
#288=CARTESIAN_POINT('Ctrl Pts',(-0.913466400297404,1.88970140942404,1.88086899953664));
#289=CARTESIAN_POINT('Ctrl Pts',(-0.871882774188401,1.67864035375711,0.880868999536641));
#290=CARTESIAN_POINT('Ctrl Pts',(-0.871882774188401,1.67864035375711,1.88086899953664));
#291=CARTESIAN_POINT('Ctrl Pts',(-0.210457617014314,1.65537317427555,0.880868999536641));
#292=CARTESIAN_POINT('Ctrl Pts',(-0.210457617014314,1.65537317427555,1.88086899953664));
#293=CARTESIAN_POINT('Ctrl Pts',(0.448106755419594,1.85659167197792,0.880868999536641));
#294=CARTESIAN_POINT('Ctrl Pts',(0.448106755419594,1.85659167197792,1.88086899953664));
#295=CARTESIAN_POINT('Ctrl Pts',(0.626928497187715,2.34200271682507,0.880868999536641));
#296=CARTESIAN_POINT('Ctrl Pts',(0.626928497187715,2.34200271682507,1.88086899953664));
#297=CARTESIAN_POINT('Ctrl Pts',(0.35163959874141,2.84982547854437,0.880868999536641));
#298=CARTESIAN_POINT('Ctrl Pts',(0.35163959874141,2.84982547854437,1.88086899953664));
#299=CARTESIAN_POINT('',(-0.88022776650733,2.82129460857183,0.880868999536641));
#300=CARTESIAN_POINT('Ctrl Pts',(0.351639598741406,2.84982547854437,0.880868999536641));
#301=CARTESIAN_POINT('Ctrl Pts',(0.626928497187715,2.34200271682507,0.880868999536641));
#302=CARTESIAN_POINT('Ctrl Pts',(0.448106755419596,1.85659167197792,0.88086899953664));
#303=CARTESIAN_POINT('Ctrl Pts',(-0.210457617014313,1.65537317427555,0.880868999536641));
#304=CARTESIAN_POINT('Ctrl Pts',(-0.871882774188401,1.67864035375711,0.880868999536641));
#305=CARTESIAN_POINT('Ctrl Pts',(-0.913466400297404,1.88970140942404,0.880868999536641));
#306=CARTESIAN_POINT('Ctrl Pts',(-1.0209758794959,2.12644448774205,0.880868999536641));
#307=CARTESIAN_POINT('Ctrl Pts',(-1.05577663138858,2.32253394683964,0.880868999536641));
#308=CARTESIAN_POINT('Ctrl Pts',(-0.993405784429867,2.53488426364856,0.880868999536641));
#309=CARTESIAN_POINT('Ctrl Pts',(-0.95100648827449,2.66827440152202,0.880868999536641));
#310=CARTESIAN_POINT('Ctrl Pts',(-0.88022776650733,2.82129460857183,0.880868999536641));
#311=CARTESIAN_POINT('',(-0.88022776650733,2.82129460857183,1.88086899953664));
#312=CARTESIAN_POINT('Ctrl Pts',(-0.880227766507331,2.82129460857183,1.88086899953664));
#313=CARTESIAN_POINT('Ctrl Pts',(-0.95100648827449,2.66827440152202,1.88086899953664));
#314=CARTESIAN_POINT('Ctrl Pts',(-0.993405784429867,2.53488426364856,1.88086899953664));
#315=CARTESIAN_POINT('Ctrl Pts',(-1.05577663138858,2.32253394683964,1.88086899953664));
#316=CARTESIAN_POINT('Ctrl Pts',(-1.0209758794959,2.12644448774205,1.88086899953664));
#317=CARTESIAN_POINT('Ctrl Pts',(-0.913466400297404,1.88970140942404,1.88086899953664));
#318=CARTESIAN_POINT('Ctrl Pts',(-0.871882774188401,1.67864035375711,1.88086899953664));
#319=CARTESIAN_POINT('Ctrl Pts',(-0.210457617014313,1.65537317427555,1.88086899953664));
#320=CARTESIAN_POINT('Ctrl Pts',(0.448106755419594,1.85659167197792,1.88086899953664));
#321=CARTESIAN_POINT('Ctrl Pts',(0.626928497187715,2.34200271682507,1.88086899953664));
#322=CARTESIAN_POINT('Ctrl Pts',(0.35163959874141,2.84982547854437,1.88086899953664));
#323=CARTESIAN_POINT('',(-0.88022776650733,2.82129460857183,0.880868999536641));
#324=CARTESIAN_POINT('Ctrl Pts',(-1.02793807472568,3.93924461774611,0.880868999536641));
#325=CARTESIAN_POINT('Ctrl Pts',(-1.02793807472568,3.93924461774611,1.88086899953664));
#326=CARTESIAN_POINT('Ctrl Pts',(-1.17420722162326,4.02309059490909,0.880868999536641));
#327=CARTESIAN_POINT('Ctrl Pts',(-1.17420722162326,4.02309059490909,1.88086899953664));
#328=CARTESIAN_POINT('Ctrl Pts',(-1.30339442760213,4.07695426548347,0.880868999536641));
#329=CARTESIAN_POINT('Ctrl Pts',(-1.30339442760213,4.07695426548347,1.88086899953664));
#330=CARTESIAN_POINT('Ctrl Pts',(-1.50950070985278,4.15759532212342,0.880868999536641));
#331=CARTESIAN_POINT('Ctrl Pts',(-1.50950070985278,4.15759532212342,1.88086899953664));
#332=CARTESIAN_POINT('Ctrl Pts',(-1.70787707473687,4.14001732005096,0.880868999536641));
#333=CARTESIAN_POINT('Ctrl Pts',(-1.70787707473687,4.14001732005096,1.88086899953664));
#334=CARTESIAN_POINT('Ctrl Pts',(-1.95308934267915,4.05355046570999,0.880868999536641));
#335=CARTESIAN_POINT('Ctrl Pts',(-1.95308934267915,4.05355046570999,1.88086899953664));
#336=CARTESIAN_POINT('Ctrl Pts',(-2.17010563844303,4.03018278597359,0.880868999536641));
#337=CARTESIAN_POINT('Ctrl Pts',(-2.17010563844303,4.03018278597359,1.88086899953664));
#338=CARTESIAN_POINT('Ctrl Pts',(-2.25073932358079,3.34926622561238,0.880868999536641));
#339=CARTESIAN_POINT('Ctrl Pts',(-2.25073932358079,3.34926622561238,1.88086899953664));
#340=CARTESIAN_POINT('Ctrl Pts',(-2.09377748754135,2.64984195201825,0.880868999536641));
#341=CARTESIAN_POINT('Ctrl Pts',(-2.09377748754135,2.64984195201825,1.88086899953664));
#342=CARTESIAN_POINT('Ctrl Pts',(-1.56333869105961,2.44846836003558,0.880868999536641));
#343=CARTESIAN_POINT('Ctrl Pts',(-1.56333869105961,2.44846836003558,1.88086899953664));
#344=CARTESIAN_POINT('Ctrl Pts',(-0.880227766507332,2.82129460857183,0.880868999536641));
#345=CARTESIAN_POINT('Ctrl Pts',(-0.880227766507332,2.82129460857183,1.88086899953664));
#346=CARTESIAN_POINT('Ctrl Pts',(-0.88022776650733,2.82129460857183,0.880868999536641));
#347=CARTESIAN_POINT('Ctrl Pts',(-1.56333869105961,2.44846836003558,0.880868999536641));
#348=CARTESIAN_POINT('Ctrl Pts',(-2.09377748754135,2.64984195201825,0.880868999536641));
#349=CARTESIAN_POINT('Ctrl Pts',(-2.25073932358079,3.34926622561238,0.880868999536641));
#350=CARTESIAN_POINT('Ctrl Pts',(-2.17010563844303,4.03018278597358,0.880868999536641));
#351=CARTESIAN_POINT('Ctrl Pts',(-1.95308934267915,4.05355046570999,0.880868999536641));
#352=CARTESIAN_POINT('Ctrl Pts',(-1.70787707473687,4.14001732005096,0.880868999536641));
#353=CARTESIAN_POINT('Ctrl Pts',(-1.50950070985278,4.15759532212342,0.880868999536641));
#354=CARTESIAN_POINT('Ctrl Pts',(-1.30339442760213,4.07695426548347,0.880868999536641));
#355=CARTESIAN_POINT('Ctrl Pts',(-1.17420722162326,4.02309059490909,0.880868999536641));
#356=CARTESIAN_POINT('Ctrl Pts',(-1.02793807472568,3.93924461774611,0.880868999536641));
#357=CARTESIAN_POINT('Ctrl Pts',(-1.02793807472568,3.93924461774611,1.88086899953664));
#358=CARTESIAN_POINT('Ctrl Pts',(-1.17420722162326,4.02309059490909,1.88086899953664));
#359=CARTESIAN_POINT('Ctrl Pts',(-1.30339442760213,4.07695426548347,1.88086899953664));
#360=CARTESIAN_POINT('Ctrl Pts',(-1.50950070985278,4.15759532212342,1.88086899953664));
#361=CARTESIAN_POINT('Ctrl Pts',(-1.70787707473687,4.14001732005096,1.88086899953664));
#362=CARTESIAN_POINT('Ctrl Pts',(-1.95308934267915,4.05355046570999,1.88086899953664));
#363=CARTESIAN_POINT('Ctrl Pts',(-2.17010563844303,4.03018278597359,1.88086899953664));
#364=CARTESIAN_POINT('Ctrl Pts',(-2.25073932358079,3.34926622561238,1.88086899953664));
#365=CARTESIAN_POINT('Ctrl Pts',(-2.09377748754135,2.64984195201825,1.88086899953664));
#366=CARTESIAN_POINT('Ctrl Pts',(-1.56333869105961,2.44846836003558,1.88086899953664));
#367=CARTESIAN_POINT('Ctrl Pts',(-0.880227766507332,2.82129460857183,1.88086899953664));
#368=CARTESIAN_POINT('Origin',(-0.443347789800956,3.45694919020943,1.88086899953664));
#369=CARTESIAN_POINT('Origin',(-0.443347789800956,3.45694919020943,0.880868999536641));
#370=UNCERTAINTY_MEASURE_WITH_UNIT(LENGTH_MEASURE(0.001),#374,
'DISTANCE_ACCURACY_VALUE',
'Maximum model space distance between geometric entities at asserted c
onnectivities');
#371=UNCERTAINTY_MEASURE_WITH_UNIT(LENGTH_MEASURE(0.001),#374,
'DISTANCE_ACCURACY_VALUE',
'Maximum model space distance between geometric entities at asserted c
onnectivities');
#372=(
GEOMETRIC_REPRESENTATION_CONTEXT(3)
GLOBAL_UNCERTAINTY_ASSIGNED_CONTEXT((#370))
GLOBAL_UNIT_ASSIGNED_CONTEXT((#374,#376,#377))
REPRESENTATION_CONTEXT('','3D')
);
#373=(
GEOMETRIC_REPRESENTATION_CONTEXT(3)
GLOBAL_UNCERTAINTY_ASSIGNED_CONTEXT((#371))
GLOBAL_UNIT_ASSIGNED_CONTEXT((#374,#376,#377))
REPRESENTATION_CONTEXT('','3D')
);
#374=(
LENGTH_UNIT()
NAMED_UNIT(*)
SI_UNIT(.CENTI.,.METRE.)
);
#375=(
LENGTH_UNIT()
NAMED_UNIT(*)
SI_UNIT($,.METRE.)
);
#376=(
NAMED_UNIT(*)
PLANE_ANGLE_UNIT()
SI_UNIT($,.RADIAN.)
);
#377=(
NAMED_UNIT(*)
SI_UNIT($,.STERADIAN.)
SOLID_ANGLE_UNIT()
);
#378=SHAPE_DEFINITION_REPRESENTATION(#379,#380);
#379=PRODUCT_DEFINITION_SHAPE('',$,#382);
#380=SHAPE_REPRESENTATION('',(#142),#372);
#381=PRODUCT_DEFINITION_CONTEXT('part definition',#386,'design');
#382=PRODUCT_DEFINITION('2026-07-15-21-10-41-464','drawer knob',#383,#381);
#383=PRODUCT_DEFINITION_FORMATION('',$,#388);
#384=PRODUCT_RELATED_PRODUCT_CATEGORY('drawer knob','drawer knob',(#388));
#385=APPLICATION_PROTOCOL_DEFINITION('international standard',
'automotive_design',2009,#386);
#386=APPLICATION_CONTEXT(
'Core Data for Automotive Mechanical Design Process');
#387=PRODUCT_CONTEXT('part definition',#386,'mechanical');
#388=PRODUCT('2026-07-15-21-10-41-464','drawer knob',$,(#387));
#389=PRESENTATION_STYLE_ASSIGNMENT((#390));
#390=SURFACE_STYLE_USAGE(.BOTH.,#391);
#391=SURFACE_SIDE_STYLE('',(#392));
#392=SURFACE_STYLE_FILL_AREA(#393);
#393=FILL_AREA_STYLE('Steel - Satin',(#394));
#394=FILL_AREA_STYLE_COLOUR('Steel - Satin',#395);
#395=COLOUR_RGB('Steel - Satin',0.627450980392157,0.627450980392157,0.627450980392157);
ENDSEC;
END-ISO-10303-21;
