ISO-10303-21;
HEADER;
/* Generated by software containing ST-Developer
 * from STEP Tools, Inc. (www.steptools.com) 
 */

FILE_DESCRIPTION(
/* description */ (''),
/* implementation_level */ '2;1');

FILE_NAME(
/* name */ 'drawer container.step',
/* time_stamp */ '2026-07-15T22:13:48+05:00',
/* author */ (''),
/* organization */ (''),
/* preprocessor_version */ 'ST-DEVELOPER v20.1',
/* originating_system */ 'Autodesk Translation Framework v15.8.0.0',
/* authorisation */ '');

FILE_SCHEMA (('AUTOMOTIVE_DESIGN { 1 0 10303 214 3 1 1 }'));
ENDSEC;

DATA;
#10=MECHANICAL_DESIGN_GEOMETRIC_PRESENTATION_REPRESENTATION('',(#17),#611);
#11=SHAPE_REPRESENTATION_RELATIONSHIP('SRR','None',#621,#12);
#12=ADVANCED_BREP_SHAPE_REPRESENTATION('',(#18),#609);
#13=ITEM_DEFINED_TRANSFORMATION($,$,#291,#304);
#14=(
REPRESENTATION_RELATIONSHIP($,$,#622,#621)
REPRESENTATION_RELATIONSHIP_WITH_TRANSFORMATION(#13)
SHAPE_REPRESENTATION_RELATIONSHIP()
);
#15=CONTEXT_DEPENDENT_SHAPE_REPRESENTATION(#14,#620);
#16=NEXT_ASSEMBLY_USAGE_OCCURRENCE('pen holder:1','pen holder:1',
'pen holder:1',#624,#625,'pen holder:1');
#17=STYLED_ITEM('',(#635),#18);
#18=MANIFOLD_SOLID_BREP('Body2',#277);
#19=(
BOUNDED_SURFACE()
B_SPLINE_SURFACE(4,1,((#573,#574),(#575,#576),(#577,#578),(#579,#580),(#581,
#582)),.UNSPECIFIED.,.F.,.F.,.F.)
B_SPLINE_SURFACE_WITH_KNOTS((5,5),(2,2),(0.119033452611707,0.876673244778537),
(0.,15.),.UNSPECIFIED.)
GEOMETRIC_REPRESENTATION_ITEM()
RATIONAL_B_SPLINE_SURFACE(((1.,1.),(1.,1.),(1.,1.),(1.,1.),(1.,1.)))
REPRESENTATION_ITEM('')
SURFACE()
);
#20=(
BOUNDED_SURFACE()
B_SPLINE_SURFACE(4,1,((#584,#585),(#586,#587),(#588,#589),(#590,#591),(#592,
#593)),.UNSPECIFIED.,.F.,.F.,.F.)
B_SPLINE_SURFACE_WITH_KNOTS((5,5),(2,2),(0.0912294274191165,0.876673244778537),
(0.,15.),.UNSPECIFIED.)
GEOMETRIC_REPRESENTATION_ITEM()
RATIONAL_B_SPLINE_SURFACE(((1.,1.),(1.,1.),(1.,1.),(1.,1.),(1.,1.)))
REPRESENTATION_ITEM('')
SURFACE()
);
#21=(
BOUNDED_SURFACE()
B_SPLINE_SURFACE(4,1,((#595,#596),(#597,#598),(#599,#600),(#601,#602),(#603,
#604)),.UNSPECIFIED.,.F.,.F.,.F.)
B_SPLINE_SURFACE_WITH_KNOTS((5,5),(2,2),(0.110327566841099,0.887400846485167),
(0.,15.),.UNSPECIFIED.)
GEOMETRIC_REPRESENTATION_ITEM()
RATIONAL_B_SPLINE_SURFACE(((1.,1.),(1.,1.),(1.,1.),(1.,1.),(1.,1.)))
REPRESENTATION_ITEM('')
SURFACE()
);
#22=(
BOUNDED_CURVE()
B_SPLINE_CURVE(4,(#557,#558,#559,#560,#561),.UNSPECIFIED.,.F.,.F.)
B_SPLINE_CURVE_WITH_KNOTS((5,5),(0.119033452611707,0.195359270057055),
 .UNSPECIFIED.)
CURVE()
GEOMETRIC_REPRESENTATION_ITEM()
RATIONAL_B_SPLINE_CURVE((1.,1.,1.,1.,1.))
REPRESENTATION_ITEM('')
);
#23=(
BOUNDED_CURVE()
B_SPLINE_CURVE(4,(#563,#564,#565,#566,#567),.UNSPECIFIED.,.F.,.F.)
B_SPLINE_CURVE_WITH_KNOTS((5,5),(0.0912294274191165,0.876673244778537),
 .UNSPECIFIED.)
CURVE()
GEOMETRIC_REPRESENTATION_ITEM()
RATIONAL_B_SPLINE_CURVE((1.,1.,1.,1.,1.))
REPRESENTATION_ITEM('')
);
#24=(
BOUNDED_CURVE()
B_SPLINE_CURVE(4,(#568,#569,#570,#571,#572),.UNSPECIFIED.,.F.,.F.)
B_SPLINE_CURVE_WITH_KNOTS((5,5),(0.562987073698285,0.887400846485167),
 .UNSPECIFIED.)
CURVE()
GEOMETRIC_REPRESENTATION_ITEM()
RATIONAL_B_SPLINE_CURVE((1.,1.,1.,1.,1.))
REPRESENTATION_ITEM('')
);
#25=FACE_BOUND('',#52,.T.);
#26=B_SPLINE_CURVE_WITH_KNOTS('',3,(#402,#403,#404,#405),.UNSPECIFIED.,
 .F.,.F.,(4,4),(0.0500000000000007,10.0180313395877),.UNSPECIFIED.);
#27=B_SPLINE_CURVE_WITH_KNOTS('',3,(#423,#424,#425,#426,#427,#428,#429,
#430,#431,#432,#433,#434,#435,#436,#437,#438,#439,#440,#441,#442,#443,#444,
#445,#446,#447,#448,#449,#450,#451,#452,#453,#454,#455,#456),
 .UNSPECIFIED.,.F.,.F.,(4,3,3,3,3,3,3,3,3,3,3,4),(0.0558911051306148,0.42797508684651,
0.800059068561972,1.19069403894375,1.56277802065938,1.93486200237509,2.30694598409061,
2.67902996580706,3.05111394752268,3.42319792923799,3.79528191095377,3.92513883161619),
 .UNSPECIFIED.);
#28=B_SPLINE_CURVE_WITH_KNOTS('',3,(#458,#459,#460,#461,#462,#463,#464,
#465,#466,#467,#468,#469,#470,#471,#472,#473,#474,#475,#476,#477,#478,#479,
#480,#481,#482,#483,#484,#485,#486,#487,#488,#489,#490,#491,#492,#493,#494,
#495,#496,#497,#498,#499,#500,#501,#502,#503,#504,#505,#506,#507,#508,#509,
#510,#511,#512,#513,#514,#515,#516,#517,#518,#519,#520,#521,#522,#523,#524,
#525,#526,#527,#528,#529,#530,#531,#532,#533,#534,#535,#536),
 .UNSPECIFIED.,.F.,.F.,(4,3,3,3,3,3,3,3,3,3,3,3,3,3,3,3,3,3,3,3,3,3,3,3,
3,3,4),(0.,0.372004189730753,0.744008379461524,1.11601256919229,1.48801675892318,
1.86002094865405,2.23202513838494,2.60402932811581,2.97603351784612,3.34803770757715,
3.72415372164938,4.09615791138009,4.46816210111085,4.8401662908416,5.21217048057251,
5.58417467030323,5.95617886003357,6.32818304976491,6.7078969101359,7.07990109986672,
7.45190528959752,7.82390947932841,8.20940559267952,8.58140978241029,8.95341397213975,
9.32541816187072,9.36589393273286),.UNSPECIFIED.);
#29=B_SPLINE_CURVE_WITH_KNOTS('',3,(#537,#538,#539,#540,#541,#542,#543,
#544,#545,#546),.UNSPECIFIED.,.F.,.F.,(4,3,3,4),(0.,0.403584819250194,0.807169638500302,
0.987398730997297),.UNSPECIFIED.);
#30=B_SPLINE_CURVE_WITH_KNOTS('',3,(#551,#552,#553,#554),.UNSPECIFIED.,
 .F.,.F.,(4,4),(0.,9.96803133958776),.UNSPECIFIED.);
#31=FACE_OUTER_BOUND('',#46,.T.);
#32=FACE_OUTER_BOUND('',#47,.T.);
#33=FACE_OUTER_BOUND('',#48,.T.);
#34=FACE_OUTER_BOUND('',#49,.T.);
#35=FACE_OUTER_BOUND('',#50,.T.);
#36=FACE_OUTER_BOUND('',#51,.T.);
#37=FACE_OUTER_BOUND('',#53,.T.);
#38=FACE_OUTER_BOUND('',#54,.T.);
#39=FACE_OUTER_BOUND('',#55,.T.);
#40=FACE_OUTER_BOUND('',#56,.T.);
#41=FACE_OUTER_BOUND('',#57,.T.);
#42=FACE_OUTER_BOUND('',#58,.T.);
#43=FACE_OUTER_BOUND('',#59,.T.);
#44=FACE_OUTER_BOUND('',#60,.T.);
#45=FACE_OUTER_BOUND('',#61,.T.);
#46=EDGE_LOOP('',(#178,#179,#180,#181));
#47=EDGE_LOOP('',(#182,#183,#184,#185));
#48=EDGE_LOOP('',(#186,#187,#188,#189));
#49=EDGE_LOOP('',(#190,#191,#192,#193));
#50=EDGE_LOOP('',(#194,#195,#196,#197));
#51=EDGE_LOOP('',(#198,#199,#200,#201,#202,#203));
#52=EDGE_LOOP('',(#204,#205,#206,#207));
#53=EDGE_LOOP('',(#208,#209,#210,#211));
#54=EDGE_LOOP('',(#212,#213,#214,#215));
#55=EDGE_LOOP('',(#216,#217,#218,#219));
#56=EDGE_LOOP('',(#220,#221,#222,#223,#224,#225,#226));
#57=EDGE_LOOP('',(#227,#228,#229,#230,#231,#232));
#58=EDGE_LOOP('',(#233,#234,#235,#236,#237));
#59=EDGE_LOOP('',(#238,#239,#240,#241));
#60=EDGE_LOOP('',(#242,#243,#244,#245));
#61=EDGE_LOOP('',(#246,#247,#248,#249));
#62=LINE('',#368,#90);
#63=LINE('',#370,#91);
#64=LINE('',#372,#92);
#65=LINE('',#373,#93);
#66=LINE('',#376,#94);
#67=LINE('',#378,#95);
#68=LINE('',#379,#96);
#69=LINE('',#382,#97);
#70=LINE('',#384,#98);
#71=LINE('',#385,#99);
#72=LINE('',#387,#100);
#73=LINE('',#388,#101);
#74=LINE('',#393,#102);
#75=LINE('',#395,#103);
#76=LINE('',#397,#104);
#77=LINE('',#399,#105);
#78=LINE('',#401,#106);
#79=LINE('',#409,#107);
#80=LINE('',#411,#108);
#81=LINE('',#413,#109);
#82=LINE('',#414,#110);
#83=LINE('',#416,#111);
#84=LINE('',#417,#112);
#85=LINE('',#419,#113);
#86=LINE('',#547,#114);
#87=LINE('',#550,#115);
#88=LINE('',#583,#116);
#89=LINE('',#594,#117);
#90=VECTOR('',#311,1.);
#91=VECTOR('',#312,1.);
#92=VECTOR('',#313,1.);
#93=VECTOR('',#314,1.);
#94=VECTOR('',#317,1.);
#95=VECTOR('',#318,1.);
#96=VECTOR('',#319,1.);
#97=VECTOR('',#322,1.);
#98=VECTOR('',#323,1.);
#99=VECTOR('',#324,1.);
#100=VECTOR('',#327,1.);
#101=VECTOR('',#328,1.);
#102=VECTOR('',#333,1.);
#103=VECTOR('',#334,1.);
#104=VECTOR('',#335,1.);
#105=VECTOR('',#336,1.);
#106=VECTOR('',#337,1.);
#107=VECTOR('',#340,1.);
#108=VECTOR('',#341,1.);
#109=VECTOR('',#342,1.);
#110=VECTOR('',#343,1.);
#111=VECTOR('',#346,1.);
#112=VECTOR('',#347,1.);
#113=VECTOR('',#350,1.);
#114=VECTOR('',#353,1.);
#115=VECTOR('',#356,1.);
#116=VECTOR('',#359,1.);
#117=VECTOR('',#360,1.);
#118=VERTEX_POINT('',#366);
#119=VERTEX_POINT('',#367);
#120=VERTEX_POINT('',#369);
#121=VERTEX_POINT('',#371);
#122=VERTEX_POINT('',#375);
#123=VERTEX_POINT('',#377);
#124=VERTEX_POINT('',#381);
#125=VERTEX_POINT('',#383);
#126=VERTEX_POINT('',#391);
#127=VERTEX_POINT('',#392);
#128=VERTEX_POINT('',#394);
#129=VERTEX_POINT('',#396);
#130=VERTEX_POINT('',#398);
#131=VERTEX_POINT('',#400);
#132=VERTEX_POINT('',#407);
#133=VERTEX_POINT('',#408);
#134=VERTEX_POINT('',#410);
#135=VERTEX_POINT('',#412);
#136=VERTEX_POINT('',#421);
#137=VERTEX_POINT('',#422);
#138=VERTEX_POINT('',#457);
#139=VERTEX_POINT('',#549);
#140=VERTEX_POINT('',#556);
#141=VERTEX_POINT('',#562);
#142=EDGE_CURVE('',#118,#119,#62,.T.);
#143=EDGE_CURVE('',#118,#120,#63,.T.);
#144=EDGE_CURVE('',#120,#121,#64,.T.);
#145=EDGE_CURVE('',#119,#121,#65,.T.);
#146=EDGE_CURVE('',#122,#118,#66,.T.);
#147=EDGE_CURVE('',#122,#123,#67,.T.);
#148=EDGE_CURVE('',#123,#120,#68,.T.);
#149=EDGE_CURVE('',#124,#122,#69,.T.);
#150=EDGE_CURVE('',#124,#125,#70,.T.);
#151=EDGE_CURVE('',#125,#123,#71,.T.);
#152=EDGE_CURVE('',#119,#124,#72,.T.);
#153=EDGE_CURVE('',#121,#125,#73,.T.);
#154=EDGE_CURVE('',#126,#127,#74,.T.);
#155=EDGE_CURVE('',#128,#127,#75,.T.);
#156=EDGE_CURVE('',#129,#128,#76,.T.);
#157=EDGE_CURVE('',#130,#129,#77,.T.);
#158=EDGE_CURVE('',#131,#130,#78,.T.);
#159=EDGE_CURVE('',#131,#126,#26,.T.);
#160=EDGE_CURVE('',#132,#133,#79,.T.);
#161=EDGE_CURVE('',#133,#134,#80,.T.);
#162=EDGE_CURVE('',#134,#135,#81,.T.);
#163=EDGE_CURVE('',#135,#132,#82,.T.);
#164=EDGE_CURVE('',#129,#133,#83,.T.);
#165=EDGE_CURVE('',#130,#132,#84,.T.);
#166=EDGE_CURVE('',#128,#134,#85,.T.);
#167=EDGE_CURVE('',#136,#137,#27,.T.);
#168=EDGE_CURVE('',#137,#138,#28,.T.);
#169=EDGE_CURVE('',#138,#131,#29,.T.);
#170=EDGE_CURVE('',#136,#135,#86,.T.);
#171=EDGE_CURVE('',#127,#139,#87,.T.);
#172=EDGE_CURVE('',#139,#136,#30,.T.);
#173=EDGE_CURVE('',#140,#126,#22,.T.);
#174=EDGE_CURVE('',#141,#140,#23,.T.);
#175=EDGE_CURVE('',#139,#141,#24,.T.);
#176=EDGE_CURVE('',#138,#140,#88,.T.);
#177=EDGE_CURVE('',#137,#141,#89,.T.);
#178=ORIENTED_EDGE('',*,*,#142,.F.);
#179=ORIENTED_EDGE('',*,*,#143,.T.);
#180=ORIENTED_EDGE('',*,*,#144,.T.);
#181=ORIENTED_EDGE('',*,*,#145,.F.);
#182=ORIENTED_EDGE('',*,*,#146,.F.);
#183=ORIENTED_EDGE('',*,*,#147,.T.);
#184=ORIENTED_EDGE('',*,*,#148,.T.);
#185=ORIENTED_EDGE('',*,*,#143,.F.);
#186=ORIENTED_EDGE('',*,*,#149,.F.);
#187=ORIENTED_EDGE('',*,*,#150,.T.);
#188=ORIENTED_EDGE('',*,*,#151,.T.);
#189=ORIENTED_EDGE('',*,*,#147,.F.);
#190=ORIENTED_EDGE('',*,*,#152,.F.);
#191=ORIENTED_EDGE('',*,*,#145,.T.);
#192=ORIENTED_EDGE('',*,*,#153,.T.);
#193=ORIENTED_EDGE('',*,*,#150,.F.);
#194=ORIENTED_EDGE('',*,*,#153,.F.);
#195=ORIENTED_EDGE('',*,*,#144,.F.);
#196=ORIENTED_EDGE('',*,*,#148,.F.);
#197=ORIENTED_EDGE('',*,*,#151,.F.);
#198=ORIENTED_EDGE('',*,*,#154,.T.);
#199=ORIENTED_EDGE('',*,*,#155,.F.);
#200=ORIENTED_EDGE('',*,*,#156,.F.);
#201=ORIENTED_EDGE('',*,*,#157,.F.);
#202=ORIENTED_EDGE('',*,*,#158,.F.);
#203=ORIENTED_EDGE('',*,*,#159,.T.);
#204=ORIENTED_EDGE('',*,*,#142,.T.);
#205=ORIENTED_EDGE('',*,*,#152,.T.);
#206=ORIENTED_EDGE('',*,*,#149,.T.);
#207=ORIENTED_EDGE('',*,*,#146,.T.);
#208=ORIENTED_EDGE('',*,*,#160,.T.);
#209=ORIENTED_EDGE('',*,*,#161,.T.);
#210=ORIENTED_EDGE('',*,*,#162,.T.);
#211=ORIENTED_EDGE('',*,*,#163,.T.);
#212=ORIENTED_EDGE('',*,*,#157,.T.);
#213=ORIENTED_EDGE('',*,*,#164,.T.);
#214=ORIENTED_EDGE('',*,*,#160,.F.);
#215=ORIENTED_EDGE('',*,*,#165,.F.);
#216=ORIENTED_EDGE('',*,*,#156,.T.);
#217=ORIENTED_EDGE('',*,*,#166,.T.);
#218=ORIENTED_EDGE('',*,*,#161,.F.);
#219=ORIENTED_EDGE('',*,*,#164,.F.);
#220=ORIENTED_EDGE('',*,*,#167,.T.);
#221=ORIENTED_EDGE('',*,*,#168,.T.);
#222=ORIENTED_EDGE('',*,*,#169,.T.);
#223=ORIENTED_EDGE('',*,*,#158,.T.);
#224=ORIENTED_EDGE('',*,*,#165,.T.);
#225=ORIENTED_EDGE('',*,*,#163,.F.);
#226=ORIENTED_EDGE('',*,*,#170,.F.);
#227=ORIENTED_EDGE('',*,*,#171,.T.);
#228=ORIENTED_EDGE('',*,*,#172,.T.);
#229=ORIENTED_EDGE('',*,*,#170,.T.);
#230=ORIENTED_EDGE('',*,*,#162,.F.);
#231=ORIENTED_EDGE('',*,*,#166,.F.);
#232=ORIENTED_EDGE('',*,*,#155,.T.);
#233=ORIENTED_EDGE('',*,*,#171,.F.);
#234=ORIENTED_EDGE('',*,*,#154,.F.);
#235=ORIENTED_EDGE('',*,*,#173,.F.);
#236=ORIENTED_EDGE('',*,*,#174,.F.);
#237=ORIENTED_EDGE('',*,*,#175,.F.);
#238=ORIENTED_EDGE('',*,*,#159,.F.);
#239=ORIENTED_EDGE('',*,*,#169,.F.);
#240=ORIENTED_EDGE('',*,*,#176,.T.);
#241=ORIENTED_EDGE('',*,*,#173,.T.);
#242=ORIENTED_EDGE('',*,*,#168,.F.);
#243=ORIENTED_EDGE('',*,*,#177,.T.);
#244=ORIENTED_EDGE('',*,*,#174,.T.);
#245=ORIENTED_EDGE('',*,*,#176,.F.);
#246=ORIENTED_EDGE('',*,*,#172,.F.);
#247=ORIENTED_EDGE('',*,*,#175,.T.);
#248=ORIENTED_EDGE('',*,*,#177,.F.);
#249=ORIENTED_EDGE('',*,*,#167,.F.);
#250=PLANE('',#292);
#251=PLANE('',#293);
#252=PLANE('',#294);
#253=PLANE('',#295);
#254=PLANE('',#296);
#255=PLANE('',#297);
#256=PLANE('',#298);
#257=PLANE('',#299);
#258=PLANE('',#300);
#259=PLANE('',#301);
#260=PLANE('',#302);
#261=PLANE('',#303);
#262=ADVANCED_FACE('',(#31),#250,.F.);
#263=ADVANCED_FACE('',(#32),#251,.F.);
#264=ADVANCED_FACE('',(#33),#252,.F.);
#265=ADVANCED_FACE('',(#34),#253,.F.);
#266=ADVANCED_FACE('',(#35),#254,.F.);
#267=ADVANCED_FACE('',(#36,#25),#255,.F.);
#268=ADVANCED_FACE('',(#37),#256,.T.);
#269=ADVANCED_FACE('',(#38),#257,.T.);
#270=ADVANCED_FACE('',(#39),#258,.T.);
#271=ADVANCED_FACE('',(#40),#259,.T.);
#272=ADVANCED_FACE('',(#41),#260,.T.);
#273=ADVANCED_FACE('',(#42),#261,.F.);
#274=ADVANCED_FACE('',(#43),#19,.F.);
#275=ADVANCED_FACE('',(#44),#20,.F.);
#276=ADVANCED_FACE('',(#45),#21,.F.);
#277=CLOSED_SHELL('',(#262,#263,#264,#265,#266,#267,#268,#269,#270,#271,
#272,#273,#274,#275,#276));
#278=DERIVED_UNIT_ELEMENT(#280,1.);
#279=DERIVED_UNIT_ELEMENT(#613,-3.);
#280=(
MASS_UNIT()
NAMED_UNIT(*)
SI_UNIT(.KILO.,.GRAM.)
);
#281=DERIVED_UNIT((#278,#279));
#282=MEASURE_REPRESENTATION_ITEM('density measure',
POSITIVE_RATIO_MEASURE(7850.),#281);
#283=PROPERTY_DEFINITION_REPRESENTATION(#288,#285);
#284=PROPERTY_DEFINITION_REPRESENTATION(#289,#286);
#285=REPRESENTATION('material name',(#287),#610);
#286=REPRESENTATION('density',(#282),#610);
#287=DESCRIPTIVE_REPRESENTATION_ITEM('Steel','Steel');
#288=PROPERTY_DEFINITION('material property','material name',#625);
#289=PROPERTY_DEFINITION('material property','density of part',#625);
#290=AXIS2_PLACEMENT_3D('',#363,#305,#306);
#291=AXIS2_PLACEMENT_3D('',#364,#307,#308);
#292=AXIS2_PLACEMENT_3D('',#365,#309,#310);
#293=AXIS2_PLACEMENT_3D('',#374,#315,#316);
#294=AXIS2_PLACEMENT_3D('',#380,#320,#321);
#295=AXIS2_PLACEMENT_3D('',#386,#325,#326);
#296=AXIS2_PLACEMENT_3D('',#389,#329,#330);
#297=AXIS2_PLACEMENT_3D('',#390,#331,#332);
#298=AXIS2_PLACEMENT_3D('',#406,#338,#339);
#299=AXIS2_PLACEMENT_3D('',#415,#344,#345);
#300=AXIS2_PLACEMENT_3D('',#418,#348,#349);
#301=AXIS2_PLACEMENT_3D('',#420,#351,#352);
#302=AXIS2_PLACEMENT_3D('',#548,#354,#355);
#303=AXIS2_PLACEMENT_3D('',#555,#357,#358);
#304=AXIS2_PLACEMENT_3D('',#605,#361,#362);
#305=DIRECTION('axis',(0.,0.,1.));
#306=DIRECTION('refdir',(1.,0.,0.));
#307=DIRECTION('axis',(0.,0.,1.));
#308=DIRECTION('refdir',(1.,0.,0.));
#309=DIRECTION('center_axis',(0.,-1.,0.));
#310=DIRECTION('ref_axis',(0.,0.,-1.));
#311=DIRECTION('',(0.,0.,-1.));
#312=DIRECTION('',(1.,0.,0.));
#313=DIRECTION('',(0.,0.,-1.));
#314=DIRECTION('',(1.,0.,0.));
#315=DIRECTION('center_axis',(0.,0.,1.));
#316=DIRECTION('ref_axis',(0.,-1.,0.));
#317=DIRECTION('',(0.,-1.,0.));
#318=DIRECTION('',(1.,0.,0.));
#319=DIRECTION('',(0.,-1.,0.));
#320=DIRECTION('center_axis',(0.,1.,0.));
#321=DIRECTION('ref_axis',(0.,0.,1.));
#322=DIRECTION('',(0.,0.,1.));
#323=DIRECTION('',(1.,0.,0.));
#324=DIRECTION('',(0.,0.,1.));
#325=DIRECTION('center_axis',(0.,0.,-1.));
#326=DIRECTION('ref_axis',(0.,1.,0.));
#327=DIRECTION('',(0.,1.,0.));
#328=DIRECTION('',(0.,1.,0.));
#329=DIRECTION('center_axis',(1.,0.,0.));
#330=DIRECTION('ref_axis',(0.,0.,-1.));
#331=DIRECTION('center_axis',(1.,0.,0.));
#332=DIRECTION('ref_axis',(0.,1.,0.));
#333=DIRECTION('',(0.,1.,-1.66533453693774E-16));
#334=DIRECTION('',(0.,0.,1.));
#335=DIRECTION('',(0.,1.,0.));
#336=DIRECTION('',(0.,0.,-1.));
#337=DIRECTION('',(0.,-1.,0.));
#338=DIRECTION('center_axis',(1.,0.,0.));
#339=DIRECTION('ref_axis',(0.,0.,-1.));
#340=DIRECTION('',(0.,0.,-1.));
#341=DIRECTION('',(0.,1.,0.));
#342=DIRECTION('',(0.,0.,1.));
#343=DIRECTION('',(0.,-1.,0.));
#344=DIRECTION('center_axis',(0.,-1.,0.));
#345=DIRECTION('ref_axis',(0.,0.,-1.));
#346=DIRECTION('',(1.,0.,0.));
#347=DIRECTION('',(1.,0.,0.));
#348=DIRECTION('center_axis',(0.,0.,-1.));
#349=DIRECTION('ref_axis',(0.,1.,0.));
#350=DIRECTION('',(1.,0.,0.));
#351=DIRECTION('center_axis',(0.,0.,1.));
#352=DIRECTION('ref_axis',(0.,-1.,0.));
#353=DIRECTION('',(1.,0.,0.));
#354=DIRECTION('center_axis',(0.,1.,0.));
#355=DIRECTION('ref_axis',(0.,0.,1.));
#356=DIRECTION('',(1.,0.,-4.04891256782215E-16));
#357=DIRECTION('center_axis',(-4.04891256782215E-16,-1.66533453693774E-16,
-1.));
#358=DIRECTION('ref_axis',(-1.,-4.88498130835069E-15,4.04891256782215E-16));
#359=DIRECTION('',(-4.04891256782215E-16,-1.66533453693774E-16,-1.));
#360=DIRECTION('',(-4.04891256782215E-16,-1.66533453693774E-16,-1.));
#361=DIRECTION('',(1.13797860024079E-15,2.77555756156291E-16,0.999999999999999));
#362=DIRECTION('',(1.,4.88498130835069E-15,-5.27355936696951E-16));
#363=CARTESIAN_POINT('',(0.,0.,0.));
#364=CARTESIAN_POINT('',(0.,0.,0.));
#365=CARTESIAN_POINT('Origin',(-2.60498289457756,-14.,7.));
#366=CARTESIAN_POINT('',(-2.60498289457756,-14.,7.));
#367=CARTESIAN_POINT('',(-2.60498289457756,-14.,1.));
#368=CARTESIAN_POINT('',(-2.60498289457756,-14.,5.78520499801321));
#369=CARTESIAN_POINT('',(6.39501710542244,-14.,7.));
#370=CARTESIAN_POINT('',(-2.60498289457756,-14.,7.));
#371=CARTESIAN_POINT('',(6.39501710542244,-14.,1.));
#372=CARTESIAN_POINT('',(6.39501710542244,-14.,7.));
#373=CARTESIAN_POINT('',(-2.60498289457756,-14.,1.));
#374=CARTESIAN_POINT('Origin',(-2.60498289457756,-6.,7.));
#375=CARTESIAN_POINT('',(-2.60498289457756,-6.,7.));
#376=CARTESIAN_POINT('',(-2.60498289457756,-7.05638285232989,7.));
#377=CARTESIAN_POINT('',(6.39501710542244,-6.,7.));
#378=CARTESIAN_POINT('',(-2.60498289457756,-6.,7.));
#379=CARTESIAN_POINT('',(6.39501710542244,-6.,7.));
#380=CARTESIAN_POINT('Origin',(-2.60498289457756,-6.,1.));
#381=CARTESIAN_POINT('',(-2.60498289457756,-6.,1.));
#382=CARTESIAN_POINT('',(-2.60498289457756,-6.,2.78520499801321));
#383=CARTESIAN_POINT('',(6.39501710542244,-6.,1.));
#384=CARTESIAN_POINT('',(-2.60498289457756,-6.,1.));
#385=CARTESIAN_POINT('',(6.39501710542244,-6.,1.));
#386=CARTESIAN_POINT('Origin',(-2.60498289457756,-14.,1.));
#387=CARTESIAN_POINT('',(-2.60498289457756,-11.0563828523299,1.));
#388=CARTESIAN_POINT('',(6.39501710542244,-14.,1.));
#389=CARTESIAN_POINT('Origin',(6.39501710542244,-10.,4.));
#390=CARTESIAN_POINT('Origin',(-2.60498289457756,-8.11276570465977,4.57040999602643));
#391=CARTESIAN_POINT('',(-2.60498289457756,-3.40026904789911,-0.397621343561317));
#392=CARTESIAN_POINT('',(-2.60498289457756,-1.11285924465988,-0.397621343561318));
#393=CARTESIAN_POINT('',(-2.60498289457756,-3.80839041207215,-0.397621343561317));
#394=CARTESIAN_POINT('',(-2.60498289457756,-1.11285924465988,-0.429590003973571));
#395=CARTESIAN_POINT('',(-2.60498289457756,-1.11285924465988,-0.429590003973571));
#396=CARTESIAN_POINT('',(-2.60498289457756,-15.1126721646597,-0.429590003973571));
#397=CARTESIAN_POINT('',(-2.60498289457756,-15.1126721646597,-0.429590003973571));
#398=CARTESIAN_POINT('',(-2.60498289457756,-15.1126721646597,9.57040999602643));
#399=CARTESIAN_POINT('',(-2.60498289457756,-15.1126721646597,9.57040999602643));
#400=CARTESIAN_POINT('',(-2.60498289457756,-3.40026904789911,9.57040999602643));
#401=CARTESIAN_POINT('',(-2.60498289457756,-1.11285924465988,9.57040999602643));
#402=CARTESIAN_POINT('Ctrl Pts',(-2.60498289457756,-3.40026904789911,9.57040999602643));
#403=CARTESIAN_POINT('Ctrl Pts',(-2.60498289457756,-3.40026904789911,6.24773288283051));
#404=CARTESIAN_POINT('Ctrl Pts',(-2.60498289457756,-3.40026904789911,2.9250557696346));
#405=CARTESIAN_POINT('Ctrl Pts',(-2.60498289457756,-3.40026904789911,-0.397621343561317));
#406=CARTESIAN_POINT('Origin',(7.39501710542244,-8.11276570465977,4.57040999602643));
#407=CARTESIAN_POINT('',(7.39501710542244,-15.1126721646597,9.57040999602643));
#408=CARTESIAN_POINT('',(7.39501710542244,-15.1126721646597,-0.429590003973571));
#409=CARTESIAN_POINT('',(7.39501710542244,-15.1126721646597,9.57040999602643));
#410=CARTESIAN_POINT('',(7.39501710542244,-1.11285924465988,-0.429590003973571));
#411=CARTESIAN_POINT('',(7.39501710542244,-15.1126721646597,-0.429590003973571));
#412=CARTESIAN_POINT('',(7.39501710542244,-1.11285924465988,9.57040999602643));
#413=CARTESIAN_POINT('',(7.39501710542244,-1.11285924465988,-0.429590003973571));
#414=CARTESIAN_POINT('',(7.39501710542244,-1.11285924465988,9.57040999602643));
#415=CARTESIAN_POINT('Origin',(-2.60498289457756,-15.1126721646597,9.57040999602643));
#416=CARTESIAN_POINT('',(-2.60498289457756,-15.1126721646597,-0.429590003973571));
#417=CARTESIAN_POINT('',(-2.60498289457756,-15.1126721646597,9.57040999602643));
#418=CARTESIAN_POINT('Origin',(-2.60498289457756,-15.1126721646597,-0.429590003973571));
#419=CARTESIAN_POINT('',(-2.60498289457756,-1.11285924465988,-0.429590003973571));
#420=CARTESIAN_POINT('Origin',(-2.60498289457756,-1.11285924465988,9.57040999602643));
#421=CARTESIAN_POINT('',(7.34805573367609,-1.11285924465988,9.57040999602643));
#422=CARTESIAN_POINT('',(4.07452752401625,-2.57464858517323,9.57040999602643));
#423=CARTESIAN_POINT('Ctrl Pts',(7.34805573367609,-1.11285924465988,9.57040999602643));
#424=CARTESIAN_POINT('Ctrl Pts',(7.29557203831682,-1.21568113775516,9.57040999602643));
#425=CARTESIAN_POINT('Ctrl Pts',(7.23673204244819,-1.31527576114994,9.57040999602643));
#426=CARTESIAN_POINT('Ctrl Pts',(7.17181587781887,-1.41097110333964,9.57040999602643));
#427=CARTESIAN_POINT('Ctrl Pts',(7.10689971318964,-1.50666644552923,9.57040999602643));
#428=CARTESIAN_POINT('Ctrl Pts',(7.03590737979972,-1.59846250651375,9.57040999602643));
#429=CARTESIAN_POINT('Ctrl Pts',(6.95916541166814,-1.68571102767046,9.57040999602643));
#430=CARTESIAN_POINT('Ctrl Pts',(6.8785973197285,-1.77730949778136,9.57040999602643));
#431=CARTESIAN_POINT('Ctrl Pts',(6.7916915464821,-1.86389544785789,9.57040999602643));
#432=CARTESIAN_POINT('Ctrl Pts',(6.69888097445104,-1.94474691496604,9.57040999602643));
#433=CARTESIAN_POINT('Ctrl Pts',(6.6104779132687,-2.02175880097244,9.57040999602643));
#434=CARTESIAN_POINT('Ctrl Pts',(6.51671796152652,-2.09356812707658,9.57040999602643));
#435=CARTESIAN_POINT('Ctrl Pts',(6.41802277126185,-2.15957532466668,9.57040999602643));
#436=CARTESIAN_POINT('Ctrl Pts',(6.31932758099714,-2.2255825222568,9.57040999602643));
#437=CARTESIAN_POINT('Ctrl Pts',(6.21569715220994,-2.28578759133287,9.57040999602643));
#438=CARTESIAN_POINT('Ctrl Pts',(6.10759953920787,-2.33961471616495,9.57040999602643));
#439=CARTESIAN_POINT('Ctrl Pts',(5.99950192620587,-2.39344184099701,9.57040999602643));
#440=CARTESIAN_POINT('Ctrl Pts',(5.88693712898901,-2.44089102158508,9.57040999602643));
#441=CARTESIAN_POINT('Ctrl Pts',(5.77041960413528,-2.48141019508104,9.57040999602643));
#442=CARTESIAN_POINT('Ctrl Pts',(5.65390207928125,-2.52192936857711,9.57040999602643));
#443=CARTESIAN_POINT('Ctrl Pts',(5.53343182679032,-2.55551853498105,9.57040999602643));
#444=CARTESIAN_POINT('Ctrl Pts',(5.4095697055108,-2.58164938432657,9.57040999602643));
#445=CARTESIAN_POINT('Ctrl Pts',(5.28570758423155,-2.60778023367203,9.57040999602643));
#446=CARTESIAN_POINT('Ctrl Pts',(5.15845359416373,-2.6264527659591,9.57040999602643));
#447=CARTESIAN_POINT('Ctrl Pts',(5.02841499642593,-2.63716242410336,9.57040999602643));
#448=CARTESIAN_POINT('Ctrl Pts',(4.89837639868823,-2.64787208224761,9.57040999602643));
#449=CARTESIAN_POINT('Ctrl Pts',(4.76555319328057,-2.65061886624905,9.57040999602643));
#450=CARTESIAN_POINT('Ctrl Pts',(4.63059904359189,-2.64492197190508,9.57040999602643));
#451=CARTESIAN_POINT('Ctrl Pts',(4.49564489390303,-2.63922507756111,9.57040999602643));
#452=CARTESIAN_POINT('Ctrl Pts',(4.35855979993314,-2.6250845048717,9.57040999602643));
#453=CARTESIAN_POINT('Ctrl Pts',(4.22004382734147,-2.6020432025161,9.57040999602643));
#454=CARTESIAN_POINT('Ctrl Pts',(4.17170189770405,-2.59400181208012,9.57040999602643));
#455=CARTESIAN_POINT('Ctrl Pts',(4.12318610028176,-2.58487652209167,9.57040999602643));
#456=CARTESIAN_POINT('Ctrl Pts',(4.07452752401625,-2.57464858517323,9.57040999602643));
#457=CARTESIAN_POINT('',(-1.64775022304394,-3.20578590441466,9.57040999602643));
#458=CARTESIAN_POINT('Ctrl Pts',(4.07452752401354,-2.5746485851861,9.57040999602643));
#459=CARTESIAN_POINT('Ctrl Pts',(4.09599439207379,-2.71891306959435,9.57040999602643));
#460=CARTESIAN_POINT('Ctrl Pts',(4.10668846370877,-2.86095383715882,9.57040999602643));
#461=CARTESIAN_POINT('Ctrl Pts',(4.10749669396837,-3.00009680116408,9.57040999602643));
#462=CARTESIAN_POINT('Ctrl Pts',(4.10830492422796,-3.13923976516934,9.57040999602643));
#463=CARTESIAN_POINT('Ctrl Pts',(4.09922731311218,-3.27548492561539,9.57040999602643));
#464=CARTESIAN_POINT('Ctrl Pts',(4.08113988194016,-3.40820916463628,9.57040999602643));
#465=CARTESIAN_POINT('Ctrl Pts',(4.06305245076815,-3.54093340365716,9.57040999602643));
#466=CARTESIAN_POINT('Ctrl Pts',(4.0359551995399,-3.6701367212529,9.57040999602643));
#467=CARTESIAN_POINT('Ctrl Pts',(4.00071321584388,-3.79524696840703,9.57040999602643));
#468=CARTESIAN_POINT('Ctrl Pts',(3.96547123214784,-3.9203572155612,9.57040999602643));
#469=CARTESIAN_POINT('Ctrl Pts',(3.92208451598401,-4.04137439227376,9.57040999602643));
#470=CARTESIAN_POINT('Ctrl Pts',(3.87140722121011,-4.15777731837778,9.57040999602643));
#471=CARTESIAN_POINT('Ctrl Pts',(3.82072992643621,-4.27418024448179,9.57040999602643));
#472=CARTESIAN_POINT('Ctrl Pts',(3.76276205305225,-4.38596891997725,9.57040999602643));
#473=CARTESIAN_POINT('Ctrl Pts',(3.69834682118521,-4.49267313354671,9.57040999602643));
#474=CARTESIAN_POINT('Ctrl Pts',(3.63393158931817,-4.59937734711618,9.57040999602643));
#475=CARTESIAN_POINT('Ctrl Pts',(3.56306899896805,-4.70099709875964,9.57040999602643));
#476=CARTESIAN_POINT('Ctrl Pts',(3.48659133653115,-4.79711314600915,9.57040999602643));
#477=CARTESIAN_POINT('Ctrl Pts',(3.41011367409425,-4.89322919325866,9.57040999602643));
#478=CARTESIAN_POINT('Ctrl Pts',(3.32802093957056,-4.98384153611421,9.57040999602643));
#479=CARTESIAN_POINT('Ctrl Pts',(3.24113448562564,-5.06858190095736,9.57040999602643));
#480=CARTESIAN_POINT('Ctrl Pts',(3.15424803168085,-5.15332226580038,9.57040999602643));
#481=CARTESIAN_POINT('Ctrl Pts',(3.06256785831484,-5.23219065263101,9.57040999602643));
#482=CARTESIAN_POINT('Ctrl Pts',(2.96690438446245,-5.3048697566803,9.57040999602643));
#483=CARTESIAN_POINT('Ctrl Pts',(2.87124091060988,-5.37754886072972,9.57040999602643));
#484=CARTESIAN_POINT('Ctrl Pts',(2.77159413627091,-5.44403868199778,9.57040999602643));
#485=CARTESIAN_POINT('Ctrl Pts',(2.66876354664966,-5.50407288456501,9.57040999602643));
#486=CARTESIAN_POINT('Ctrl Pts',(2.56479635337422,-5.56477065518399,9.57040999602643));
#487=CARTESIAN_POINT('Ctrl Pts',(2.45757459406298,-5.61886921183101,9.57040999602643));
#488=CARTESIAN_POINT('Ctrl Pts',(2.34791319579277,-5.66614625787278,9.57040999602643));
#489=CARTESIAN_POINT('Ctrl Pts',(2.2394506521043,-5.71290645565115,9.57040999602643));
#490=CARTESIAN_POINT('Ctrl Pts',(2.12860149950381,-5.7529935719677,9.57040999602643));
#491=CARTESIAN_POINT('Ctrl Pts',(2.01614323488162,-5.78624377196915,9.57040999602643));
#492=CARTESIAN_POINT('Ctrl Pts',(1.90368497025941,-5.81949397197061,9.57040999602643));
#493=CARTESIAN_POINT('Ctrl Pts',(1.78961759361551,-5.84590725565697,9.57040999602643));
#494=CARTESIAN_POINT('Ctrl Pts',(1.67470766810953,-5.86537075702446,9.57040999602643));
#495=CARTESIAN_POINT('Ctrl Pts',(1.55979774260355,-5.88483425839194,9.57040999602643));
#496=CARTESIAN_POINT('Ctrl Pts',(1.44404526823548,-5.89734797744056,9.57040999602643));
#497=CARTESIAN_POINT('Ctrl Pts',(1.32820587443422,-5.90285001701603,9.57040999602643));
#498=CARTESIAN_POINT('Ctrl Pts',(1.21236648063291,-5.9083520565915,9.57040999602643));
#499=CARTESIAN_POINT('Ctrl Pts',(1.0964401673984,-5.90684241669382,9.57040999602643));
#500=CARTESIAN_POINT('Ctrl Pts',(0.981171630428859,-5.8983101690182,9.57040999602643));
#501=CARTESIAN_POINT('Ctrl Pts',(0.865903093459379,-5.88977792134259,9.57040999602643));
#502=CARTESIAN_POINT('Ctrl Pts',(0.751292332754871,-5.87422306588905,9.57040999602643));
#503=CARTESIAN_POINT('Ctrl Pts',(0.638073110282779,-5.85168564320231,9.57040999602643));
#504=CARTESIAN_POINT('Ctrl Pts',(0.524853887810802,-5.82914822051559,9.57040999602643));
#505=CARTESIAN_POINT('Ctrl Pts',(0.413026203571237,-5.79962823059567,9.57040999602643));
#506=CARTESIAN_POINT('Ctrl Pts',(0.303312885800814,-5.76321668283678,9.57040999602643));
#507=CARTESIAN_POINT('Ctrl Pts',(0.193599568030094,-5.72680513507778,9.57040999602643));
#508=CARTESIAN_POINT('Ctrl Pts',(0.0860006167285255,-5.68350202947978,9.57040999602643));
#509=CARTESIAN_POINT('Ctrl Pts',(-0.0187720735978836,-5.63344934428647,
9.57040999602643));
#510=CARTESIAN_POINT('Ctrl Pts',(-0.125716145206397,-5.58235933282608,9.57040999602643));
#511=CARTESIAN_POINT('Ctrl Pts',(-0.229715555417219,-5.52423689155668,9.57040999602643));
#512=CARTESIAN_POINT('Ctrl Pts',(-0.330024972911779,-5.45928777589303,9.57040999602643));
#513=CARTESIAN_POINT('Ctrl Pts',(-0.428297718449631,-5.39565738030362,9.57040999602643));
#514=CARTESIAN_POINT('Ctrl Pts',(-0.523028830691078,-5.32547489008301,9.57040999602643));
#515=CARTESIAN_POINT('Ctrl Pts',(-0.61352850918971,-5.24898527748738,9.57040999602643));
#516=CARTESIAN_POINT('Ctrl Pts',(-0.70402818768834,-5.17249566489176,9.57040999602643));
#517=CARTESIAN_POINT('Ctrl Pts',(-0.790296432444155,-5.08969892992113,9.57040999602643));
#518=CARTESIAN_POINT('Ctrl Pts',(-0.871654376741462,-5.00089101368119,9.57040999602643));
#519=CARTESIAN_POINT('Ctrl Pts',(-0.953012321038787,-4.91208309744122,9.57040999602643));
#520=CARTESIAN_POINT('Ctrl Pts',(-1.0294599648776,-4.81726399993193,9.57040999602643));
#521=CARTESIAN_POINT('Ctrl Pts',(-1.10032937527294,-4.71678063110851,9.57040999602643));
#522=CARTESIAN_POINT('Ctrl Pts',(-1.1737690918596,-4.61265291102591,9.57040999602643));
#523=CARTESIAN_POINT('Ctrl Pts',(-1.24121854022227,-4.50244226621296,9.57040999602643));
#524=CARTESIAN_POINT('Ctrl Pts',(-1.30194683323796,-4.3865924841236,9.57040999602643));
#525=CARTESIAN_POINT('Ctrl Pts',(-1.36054970536721,-4.27479731207374,9.57040999602643));
#526=CARTESIAN_POINT('Ctrl Pts',(-1.41289372208053,-4.15775113565992,9.57040999602643));
#527=CARTESIAN_POINT('Ctrl Pts',(-1.45833321440119,-4.03590465108494,9.57040999602643));
#528=CARTESIAN_POINT('Ctrl Pts',(-1.50377270672168,-3.91405816651039,9.57040999602643));
#529=CARTESIAN_POINT('Ctrl Pts',(-1.54230767464955,-3.78741137377471,9.57040999602643));
#530=CARTESIAN_POINT('Ctrl Pts',(-1.57330338293875,-3.65646593793016,9.57040999602643));
#531=CARTESIAN_POINT('Ctrl Pts',(-1.60429909122808,-3.52552050208509,9.57040999602643));
#532=CARTESIAN_POINT('Ctrl Pts',(-1.62775553987869,-3.39027642313113,9.57040999602643));
#533=CARTESIAN_POINT('Ctrl Pts',(-1.64304892737526,-3.25128633497005,9.57040999602643));
#534=CARTESIAN_POINT('Ctrl Pts',(-1.64471291844069,-3.2361635726039,9.57040999602643));
#535=CARTESIAN_POINT('Ctrl Pts',(-1.64628028222912,-3.22099651300789,9.57040999602643));
#536=CARTESIAN_POINT('Ctrl Pts',(-1.64775022304394,-3.20578590441466,9.57040999602643));
#537=CARTESIAN_POINT('Ctrl Pts',(-1.64775022305682,-3.20578590441591,9.57040999602643));
#538=CARTESIAN_POINT('Ctrl Pts',(-1.77807051994047,-3.25637843141821,9.57040999602643));
#539=CARTESIAN_POINT('Ctrl Pts',(-1.90914831330211,-3.29662427831654,9.57040999602643));
#540=CARTESIAN_POINT('Ctrl Pts',(-2.04009283108804,-3.32713273850078,9.57040999602643));
#541=CARTESIAN_POINT('Ctrl Pts',(-2.17103734887394,-3.35764119868502,9.57040999602643));
#542=CARTESIAN_POINT('Ctrl Pts',(-2.30184859108413,-3.37841227215516,9.57040999602643));
#543=CARTESIAN_POINT('Ctrl Pts',(-2.43168742027282,-3.39006241032822,9.57040999602643));
#544=CARTESIAN_POINT('Ctrl Pts',(-2.4896696169249,-3.39526501887602,9.57040999602643));
#545=CARTESIAN_POINT('Ctrl Pts',(-2.54745857684202,-3.39864877784509,9.57040999602643));
#546=CARTESIAN_POINT('Ctrl Pts',(-2.60498289457728,-3.4002690478991,9.57040999602643));
#547=CARTESIAN_POINT('',(-2.60498289457756,-1.11285924465988,9.57040999602643));
#548=CARTESIAN_POINT('Origin',(-2.60498289457756,-1.11285924465988,-0.429590003973571));
#549=CARTESIAN_POINT('',(7.34805573367609,-1.11285924465988,-0.397621343561321));
#550=CARTESIAN_POINT('',(-0.727364900077119,-1.11285924465988,-0.397621343561318));
#551=CARTESIAN_POINT('Ctrl Pts',(7.34805573367609,-1.11285924465988,-0.397621343561321));
#552=CARTESIAN_POINT('Ctrl Pts',(7.34805573367609,-1.11285924465988,2.9250557696346));
#553=CARTESIAN_POINT('Ctrl Pts',(7.34805573367609,-1.11285924465988,6.24773288283051));
#554=CARTESIAN_POINT('Ctrl Pts',(7.34805573367609,-1.11285924465988,9.57040999602643));
#555=CARTESIAN_POINT('Origin',(1.15025309442332,0.495984880515469,-0.397621343561319));
#556=CARTESIAN_POINT('',(-1.64775022304394,-3.20578590441466,-0.397621343561317));
#557=CARTESIAN_POINT('Ctrl Pts',(-1.64775022305682,-3.20578590441591,-0.397621343561317));
#558=CARTESIAN_POINT('Ctrl Pts',(-1.88687857283943,-3.29861954416884,-0.397621343561317));
#559=CARTESIAN_POINT('Ctrl Pts',(-2.12828687667237,-3.36048886918198,-0.397621343561317));
#560=CARTESIAN_POINT('Ctrl Pts',(-2.36861939654415,-3.3936114687604,-0.397621343561317));
#561=CARTESIAN_POINT('Ctrl Pts',(-2.60498289457756,-3.40026904789911,-0.397621343561317));
#562=CARTESIAN_POINT('',(4.07452752401624,-2.57464858517323,-0.397621343561319));
#563=CARTESIAN_POINT('Ctrl Pts',(4.07452752401354,-2.5746485851861,-0.397621343561319));
#564=CARTESIAN_POINT('Ctrl Pts',(4.4798786226109,-5.29874262067127,-0.397621343561318));
#565=CARTESIAN_POINT('Ctrl Pts',(1.47064419112695,-7.31940488169905,-0.397621343561318));
#566=CARTESIAN_POINT('Ctrl Pts',(-1.39264742699205,-5.84553081294927,-0.397621343561317));
#567=CARTESIAN_POINT('Ctrl Pts',(-1.64775022304394,-3.20578590441467,-0.397621343561317));
#568=CARTESIAN_POINT('Ctrl Pts',(7.34805573367609,-1.11285924465988,-0.397621343561321));
#569=CARTESIAN_POINT('Ctrl Pts',(6.93872794292452,-1.91478178562194,-0.39762134356132));
#570=CARTESIAN_POINT('Ctrl Pts',(6.18593611817319,-2.54231900034332,-0.39762134356132));
#571=CARTESIAN_POINT('Ctrl Pts',(5.16190941688518,-2.80321411791364,-0.397621343561319));
#572=CARTESIAN_POINT('Ctrl Pts',(4.07452752401624,-2.57464858517323,-0.397621343561319));
#573=CARTESIAN_POINT('Ctrl Pts',(-1.64775022305682,-3.20578590441591,14.6023786564387));
#574=CARTESIAN_POINT('Ctrl Pts',(-1.64775022305682,-3.20578590441591,-0.397621343561317));
#575=CARTESIAN_POINT('Ctrl Pts',(-4.02143136129314,-4.12728877045282,14.6023786564387));
#576=CARTESIAN_POINT('Ctrl Pts',(-4.02143136129315,-4.12728877045283,-0.397621343561315));
#577=CARTESIAN_POINT('Ctrl Pts',(-6.61976368693861,-1.99777836164808,14.6023786564387));
#578=CARTESIAN_POINT('Ctrl Pts',(-6.61976368693862,-1.99777836164808,-0.397621343561315));
#579=CARTESIAN_POINT('Ctrl Pts',(-6.16057030937575,1.01376778410947,14.6023786564387));
#580=CARTESIAN_POINT('Ctrl Pts',(-6.16057030937576,1.01376778410946,-0.397621343561315));
#581=CARTESIAN_POINT('Ctrl Pts',(-3.85199247030921,2.1158861580808,14.6023786564387));
#582=CARTESIAN_POINT('Ctrl Pts',(-3.85199247030921,2.1158861580808,-0.397621343561317));
#583=CARTESIAN_POINT('',(-1.64775022304394,-3.20578590441466,14.6023786564387));
#584=CARTESIAN_POINT('Ctrl Pts',(4.07452752401355,-2.5746485851861,14.6023786564387));
#585=CARTESIAN_POINT('Ctrl Pts',(4.07452752401354,-2.5746485851861,-0.397621343561321));
#586=CARTESIAN_POINT('Ctrl Pts',(4.47987862261091,-5.29874262067127,14.6023786564387));
#587=CARTESIAN_POINT('Ctrl Pts',(4.4798786226109,-5.29874262067127,-0.397621343561321));
#588=CARTESIAN_POINT('Ctrl Pts',(1.47064419112696,-7.31940488169905,14.6023786564387));
#589=CARTESIAN_POINT('Ctrl Pts',(1.47064419112695,-7.31940488169905,-0.397621343561319));
#590=CARTESIAN_POINT('Ctrl Pts',(-1.39264742699204,-5.84553081294926,14.6023786564387));
#591=CARTESIAN_POINT('Ctrl Pts',(-1.39264742699205,-5.84553081294927,-0.397621343561317));
#592=CARTESIAN_POINT('Ctrl Pts',(-1.64775022304394,-3.20578590441466,14.6023786564387));
#593=CARTESIAN_POINT('Ctrl Pts',(-1.64775022304394,-3.20578590441467,-0.397621343561317));
#594=CARTESIAN_POINT('',(4.07452752401625,-2.57464858517323,14.6023786564387));
#595=CARTESIAN_POINT('Ctrl Pts',(5.34978995971351,3.04765094124269,14.6023786564387));
#596=CARTESIAN_POINT('Ctrl Pts',(5.3497899597135,3.04765094124268,-0.397621343561323));
#597=CARTESIAN_POINT('Ctrl Pts',(7.94095359974486,2.51986463359239,14.6023786564387));
#598=CARTESIAN_POINT('Ctrl Pts',(7.94095359974486,2.51986463359238,-0.397621343561323));
#599=CARTESIAN_POINT('Ctrl Pts',(8.92026987578528,-0.86132378318385,14.6023786564387));
#600=CARTESIAN_POINT('Ctrl Pts',(8.92026987578528,-0.861323783183853,-0.397621343561323));
#601=CARTESIAN_POINT('Ctrl Pts',(6.67915002958518,-3.12213510713684,14.6023786564387));
#602=CARTESIAN_POINT('Ctrl Pts',(6.67915002958518,-3.12213510713684,-0.397621343561323));
#603=CARTESIAN_POINT('Ctrl Pts',(4.07452752401625,-2.57464858517323,14.6023786564387));
#604=CARTESIAN_POINT('Ctrl Pts',(4.07452752401624,-2.57464858517323,-0.397621343561321));
#605=CARTESIAN_POINT('',(0.0265778665464892,1.5180212653434,0.397143617632032));
#606=UNCERTAINTY_MEASURE_WITH_UNIT(LENGTH_MEASURE(0.001),#612,
'DISTANCE_ACCURACY_VALUE',
'Maximum model space distance between geometric entities at asserted c
onnectivities');
#607=UNCERTAINTY_MEASURE_WITH_UNIT(LENGTH_MEASURE(0.001),#612,
'DISTANCE_ACCURACY_VALUE',
'Maximum model space distance between geometric entities at asserted c
onnectivities');
#608=UNCERTAINTY_MEASURE_WITH_UNIT(LENGTH_MEASURE(0.001),#612,
'DISTANCE_ACCURACY_VALUE',
'Maximum model space distance between geometric entities at asserted c
onnectivities');
#609=(
GEOMETRIC_REPRESENTATION_CONTEXT(3)
GLOBAL_UNCERTAINTY_ASSIGNED_CONTEXT((#606))
GLOBAL_UNIT_ASSIGNED_CONTEXT((#612,#614,#615))
REPRESENTATION_CONTEXT('','3D')
);
#610=(
GEOMETRIC_REPRESENTATION_CONTEXT(3)
GLOBAL_UNCERTAINTY_ASSIGNED_CONTEXT((#607))
GLOBAL_UNIT_ASSIGNED_CONTEXT((#612,#614,#615))
REPRESENTATION_CONTEXT('','3D')
);
#611=(
GEOMETRIC_REPRESENTATION_CONTEXT(3)
GLOBAL_UNCERTAINTY_ASSIGNED_CONTEXT((#608))
GLOBAL_UNIT_ASSIGNED_CONTEXT((#612,#614,#615))
REPRESENTATION_CONTEXT('','3D')
);
#612=(
LENGTH_UNIT()
NAMED_UNIT(*)
SI_UNIT(.CENTI.,.METRE.)
);
#613=(
LENGTH_UNIT()
NAMED_UNIT(*)
SI_UNIT($,.METRE.)
);
#614=(
NAMED_UNIT(*)
PLANE_ANGLE_UNIT()
SI_UNIT($,.RADIAN.)
);
#615=(
NAMED_UNIT(*)
SI_UNIT($,.STERADIAN.)
SOLID_ANGLE_UNIT()
);
#616=SHAPE_DEFINITION_REPRESENTATION(#618,#621);
#617=SHAPE_DEFINITION_REPRESENTATION(#619,#622);
#618=PRODUCT_DEFINITION_SHAPE('',$,#624);
#619=PRODUCT_DEFINITION_SHAPE('',$,#625);
#620=PRODUCT_DEFINITION_SHAPE($,$,#16);
#621=SHAPE_REPRESENTATION('',(#290,#304),#609);
#622=SHAPE_REPRESENTATION('',(#291),#610);
#623=PRODUCT_DEFINITION_CONTEXT('part definition',#631,'design');
#624=PRODUCT_DEFINITION('2026-07-15-00-17-15-300','drawers',#626,#623);
#625=PRODUCT_DEFINITION('2026-07-15-18-52-34-244','pen holder',#627,#623);
#626=PRODUCT_DEFINITION_FORMATION('',$,#633);
#627=PRODUCT_DEFINITION_FORMATION('',$,#634);
#628=PRODUCT_RELATED_PRODUCT_CATEGORY('drawers','drawers',(#633));
#629=PRODUCT_RELATED_PRODUCT_CATEGORY('pen holder','pen holder',(#634));
#630=APPLICATION_PROTOCOL_DEFINITION('international standard',
'automotive_design',2009,#631);
#631=APPLICATION_CONTEXT(
'Core Data for Automotive Mechanical Design Process');
#632=PRODUCT_CONTEXT('part definition',#631,'mechanical');
#633=PRODUCT('2026-07-15-00-17-15-300','drawers',$,(#632));
#634=PRODUCT('2026-07-15-18-52-34-244','pen holder',$,(#632));
#635=PRESENTATION_STYLE_ASSIGNMENT((#636));
#636=SURFACE_STYLE_USAGE(.BOTH.,#637);
#637=SURFACE_SIDE_STYLE('',(#638));
#638=SURFACE_STYLE_FILL_AREA(#639);
#639=FILL_AREA_STYLE('Steel - Satin',(#640));
#640=FILL_AREA_STYLE_COLOUR('Steel - Satin',#641);
#641=COLOUR_RGB('Steel - Satin',0.627450980392157,0.627450980392157,0.627450980392157);
ENDSEC;
END-ISO-10303-21;
